<?xml version="1.0" encoding="UTF-8" standalone="no"?>
<!-- Created with Inkscape (http://www.inkscape.org/) -->

<svg
   xmlns:dc="http://purl.org/dc/elements/1.1/"
   xmlns:cc="http://creativecommons.org/ns#"
   xmlns:rdf="http://www.w3.org/1999/02/22-rdf-syntax-ns#"
   xmlns:svg="http://www.w3.org/2000/svg"
   xmlns="http://www.w3.org/2000/svg"
   xmlns:sodipodi="http://sodipodi.sourceforge.net/DTD/sodipodi-0.dtd"
   xmlns:inkscape="http://www.inkscape.org/namespaces/inkscape"
   width="160"
   height="80"
   id="svg3484"
   version="1.1"
   inkscape:version="0.48.4 r9939"
   sodipodi:docname="bindings.svg">
  <defs
     id="defs3486" />
  <sodipodi:namedview
     id="base"
     pagecolor="#ffffff"
     bordercolor="#666666"
     borderopacity="1.0"
     inkscape:pageopacity="0.0"
     inkscape:pageshadow="2"
     inkscape:zoom="1"
     inkscape:cx="79.02211"
     inkscape:cy="51.918947"
     inkscape:document-units="px"
     inkscape:current-layer="layer1"
     showgrid="false"
     inkscape:window-width="956"
     inkscape:window-height="1053"
     inkscape:window-x="960"
     inkscape:window-y="0"
     inkscape:window-maximized="0" />
  <metadata
     id="metadata3489">
    <rdf:RDF>
      <cc:Work
         rdf:about="">
        <dc:format>image/svg+xml</dc:format>
        <dc:type
           rdf:resource="http://purl.org/dc/dcmitype/StillImage" />
        <dc:title />
      </cc:Work>
    </rdf:RDF>
  </metadata>
  <g
     inkscape:label="Layer 1"
     inkscape:groupmode="layer"
     id="layer1"
     transform="translate(0,-972.36218)">
    <g
       id="g4532"
       transform="matrix(0.60952381,0,0,0.60952381,-233.68935,-60.234118)">
      <path
         inkscape:export-ydpi="90"
         inkscape:export-xdpi="90"
         inkscape:export-filename="/home/siavash/Desktop/bindings2.png"
         inkscape:connector-curvature="0"
         id="path3424-76-5-1-1"
         d="m 471.78721,1696.1033 c -12.46096,0 -22.5625,10.1015 -22.5625,22.5625 0,12.4609 10.10154,22.5625 22.5625,22.5625 2.24514,0 4.39083,-0.3269 6.4375,-0.9375 l 6.875,19.9687 c -4.3691,2.9667 -7.87506,7.1081 -10.125,11.9376 l -14.03125,-3.0626 c -0.28364,-18.4466 -15.32956,-33.3124 -33.84375,-33.3124 -18.69141,-1e-4 -33.84373,15.1523 -33.84373,33.8437 0,18.6915 15.15232,33.8437 33.84373,33.8437 13.34467,0 24.86438,-7.748 30.375,-18.9687 l 14.8125,2.0313 c 1.03668,15.258 13.76023,27.3124 29.28128,27.3124 10.6966,0 20.0633,-5.7273 25.1875,-14.2812 l 12.8125,6.2188 c -0.6394,1.5116 -1,3.1617 -1,4.9062 0,6.9781 5.6468,12.625 12.625,12.625 6.9781,0 12.6562,-5.6469 12.6562,-12.625 0,-6.9782 -5.6781,-12.625 -12.6562,-12.625 -4.1761,0 -7.8559,2.0336 -10.1563,5.1562 l -11.8125,-8.9687 c 1.072,-3.0469 1.6563,-6.3365 1.6563,-9.75 0,-2.1821 -0.2355,-4.2975 -0.6875,-6.3437 l 37.125,-12.1563 c 7.2962,6.9976 17.1859,11.2813 28.0937,11.2813 22.4298,0 40.625,-18.1641 40.625,-40.5938 0,-22.4298 -18.1952,-40.625 -40.625,-40.625 -22.4297,0 -40.5937,18.1952 -40.5937,40.625 0,2.3548 0.209,4.6612 0.5937,6.9062 l -32.8437,20.4376 c -5.3266,-5.4572 -12.7719,-8.8438 -21,-8.8438 -2.7373,0 -5.3927,0.3612 -7.9063,1.0625 l -9.56248,-18.7187 c 6.15998,-4.0284 10.24998,-10.9968 10.24998,-18.9063 0,-12.461 -10.10152,-22.5625 -22.56248,-22.5625 z"
         style="color:#000000;fill:#e6e6e6;fill-opacity:1;fill-rule:nonzero;stroke:#b3b3b3;stroke-width:4;stroke-miterlimit:4;stroke-opacity:1;stroke-dasharray:none;marker:none;visibility:visible;display:inline;overflow:visible;enable-background:accumulate" />
      <g
         style="font-size:12px;font-style:normal;font-variant:normal;font-weight:normal;font-stretch:normal;line-height:125%;letter-spacing:0px;word-spacing:0px;fill:#b3b3b3;fill-opacity:1;stroke:none;font-family:Droid Serif;-inkscape-font-specification:Droid Serif"
         id="text4355-7-4">
        <path
           d="m 484.68707,1784.2441 4.25391,0 0,6.3018 c -0.32228,0.1055 -0.64747,0.1992 -0.97559,0.2812 -0.32813,0.082 -0.66505,0.1495 -1.01074,0.2022 -0.34571,0.059 -0.70899,0.1025 -1.08984,0.1318 -0.38087,0.029 -0.79103,0.044 -1.23047,0.044 -0.91993,0 -1.73438,-0.1524 -2.44336,-0.4571 -0.70899,-0.3105 -1.30664,-0.75 -1.79297,-1.3183 -0.48633,-0.5742 -0.85547,-1.2686 -1.10742,-2.083 -0.25196,-0.8203 -0.37793,-1.7402 -0.37793,-2.7598 0,-1.0078 0.13769,-1.9189 0.41308,-2.7334 0.28125,-0.8144 0.68848,-1.5058 1.22168,-2.0742 0.5332,-0.5742 1.18945,-1.0137 1.96875,-1.3184 0.78516,-0.3105 1.67871,-0.4658 2.68067,-0.4658 0.65038,0 1.2744,0.064 1.87207,0.1934 0.59765,0.1289 1.15429,0.3164 1.66992,0.5625 l -0.63281,1.4238 c -0.21095,-0.1 -0.43946,-0.1933 -0.68555,-0.2812 -0.24024,-0.088 -0.48927,-0.1641 -0.74707,-0.2286 -0.25782,-0.07 -0.52442,-0.1259 -0.7998,-0.167 -0.26954,-0.041 -0.53907,-0.062 -0.8086,-0.062 -0.71485,0 -1.34766,0.1202 -1.89844,0.3604 -0.55078,0.2344 -1.01367,0.5742 -1.38867,1.0195 -0.36914,0.4453 -0.65039,0.9873 -0.84375,1.626 -0.19336,0.6387 -0.29004,1.3594 -0.29004,2.1621 0,0.7617 0.0791,1.459 0.23731,2.0918 0.16406,0.6328 0.42187,1.1777 0.77344,1.6348 0.35155,0.457 0.80566,0.8115 1.3623,1.0634 0.55664,0.252 1.22753,0.378 2.0127,0.378 0.2578,0 0.49218,-0.01 0.70312,-0.018 0.21679,-0.018 0.41601,-0.038 0.59766,-0.061 0.18163,-0.024 0.35155,-0.05 0.50976,-0.079 0.16406,-0.035 0.32226,-0.067 0.47461,-0.097 l 0,-3.8321 -2.62793,0 0,-1.4414"
           style="font-size:18px;fill:#b3b3b3;font-family:Droid Sans;-inkscape-font-specification:Droid Sans"
           id="path3000" />
        <path
           d="m 491.97321,1791.0293 0,-12.8496 1.63476,0 0,11.3906 5.03613,0 0,1.459 -6.67089,0"
           style="font-size:18px;fill:#b3b3b3;font-family:Droid Sans;-inkscape-font-specification:Droid Sans"
           id="path3002" />
        <path
           d="m 502.46735,1791.0293 -1.63477,0 0,-12.8496 6.6709,0 0,1.4414 -5.03613,0 0,4.5352 4.70214,0 0,1.4414 -4.70214,0 0,5.4316"
           style="font-size:18px;fill:#b3b3b3;font-family:Droid Sans;-inkscape-font-specification:Droid Sans"
           id="path3004" />
        <path
           d="m 515.22906,1778.1797 1.73145,0 2.0127,7.5234 c 0.0879,0.3282 0.17284,0.6563 0.25488,0.9844 0.0879,0.3281 0.16698,0.6475 0.2373,0.958 0.0762,0.3047 0.14062,0.5947 0.19336,0.8701 0.0586,0.2754 0.10546,0.5244 0.14063,0.7471 0.0234,-0.2227 0.0527,-0.4658 0.0879,-0.7295 0.0351,-0.2637 0.0762,-0.5391 0.12304,-0.8262 0.0469,-0.2929 0.0967,-0.5888 0.14942,-0.8877 0.0586,-0.3046 0.1201,-0.6005 0.18457,-0.8877 l 1.75781,-7.7519 1.74903,0 -3.22559,12.8496 -1.65234,0 -2.23243,-8.2441 c -0.082,-0.2989 -0.16114,-0.6065 -0.2373,-0.9229 -0.0762,-0.3164 -0.14649,-0.6123 -0.21094,-0.8877 -0.0703,-0.3222 -0.1377,-0.6357 -0.20215,-0.9404 -0.0645,0.2988 -0.12891,0.6094 -0.19336,0.9316 -0.0586,0.2754 -0.12598,0.5772 -0.20214,0.9053 -0.0703,0.3281 -0.1465,0.6504 -0.22852,0.9668 l -2.12695,8.1914 -1.65235,0 -3.39258,-12.8496 1.73145,0 1.95996,7.8135 c 0.0703,0.2695 0.13476,0.5507 0.19336,0.8437 0.0586,0.2871 0.11132,0.5742 0.1582,0.8613 0.0527,0.2872 0.0996,0.5655 0.14063,0.835 0.041,0.2637 0.0762,0.5068 0.10547,0.7295 0.0293,-0.2168 0.0644,-0.4688 0.10547,-0.7559 0.0469,-0.2871 0.0996,-0.5888 0.1582,-0.9052 0.0586,-0.3164 0.12011,-0.6358 0.18457,-0.958 0.0703,-0.3282 0.14355,-0.6358 0.21973,-0.9229 l 1.97753,-7.541"
           style="font-size:18px;fill:#b3b3b3;font-family:Droid Sans;-inkscape-font-specification:Droid Sans"
           id="path3006" />
      </g>
      <g
         style="font-size:12px;font-style:normal;font-variant:normal;font-weight:normal;font-stretch:normal;line-height:125%;letter-spacing:0px;word-spacing:0px;fill:#b3b3b3;fill-opacity:1;stroke:none;font-family:Droid Serif;-inkscape-font-specification:Droid Serif"
         id="text4355-7-4-2">
        <path
           d="m 569.12646,1751.3221 c -0.53124,0 -0.99479,-0.036 -1.39062,-0.1093 -0.39583,-0.062 -0.73958,-0.1511 -1.03125,-0.2657 l 0,-2.5 c 0.35417,0.094 0.73438,0.1667 1.14062,0.2188 0.40626,0.062 0.84376,0.094 1.3125,0.094 0.38542,0 0.77084,-0.052 1.15625,-0.1562 0.39584,-0.094 0.75,-0.2708 1.0625,-0.5313 0.32292,-0.2604 0.58334,-0.6198 0.78125,-1.0781 0.19792,-0.4583 0.29688,-1.0416 0.29688,-1.75 l 0,-22.8437 2.92187,0 0,22.5312 c 0,1.0938 -0.15625,2.0417 -0.46875,2.8438 -0.30208,0.802 -0.72917,1.4635 -1.28125,1.9843 -0.54167,0.5313 -1.19791,0.9219 -1.96875,1.1719 -0.76041,0.2604 -1.60416,0.3906 -2.53125,0.3906"
           style="font-size:32px;fill:#b3b3b3;font-family:Droid Sans;-inkscape-font-specification:Droid Sans"
           id="path3027" />
        <path
           d="m 590.65771,1745.244 -0.57812,-2.375 -0.125,0 c -0.34376,0.4688 -0.68751,0.875 -1.03125,1.2188 -0.34376,0.3333 -0.71876,0.6093 -1.125,0.8281 -0.40626,0.2187 -0.85938,0.3802 -1.35938,0.4844 -0.5,0.1041 -1.07813,0.1562 -1.73437,0.1562 -0.71876,0 -1.38021,-0.1041 -1.98438,-0.3125 -0.60417,-0.1979 -1.13021,-0.5052 -1.57812,-0.9219 -0.4375,-0.427 -0.78125,-0.9583 -1.03125,-1.5937 -0.25,-0.6458 -0.375,-1.4063 -0.375,-2.2813 0,-1.7083 0.59896,-3.0208 1.79687,-3.9375 1.20833,-0.9166 3.04167,-1.4166 5.5,-1.5 l 2.875,-0.1093 0,-1.0782 c -10e-6,-0.6979 -0.0781,-1.2812 -0.23437,-1.75 -0.14584,-0.4687 -0.36459,-0.8437 -0.65625,-1.125 -0.28126,-0.2916 -0.63543,-0.4999 -1.0625,-0.625 -0.41668,-0.1249 -0.89584,-0.1874 -1.4375,-0.1875 -0.86459,10e-5 -1.67188,0.1251 -2.42188,0.375 -0.73958,0.2501 -1.45312,0.5521 -2.14062,0.9063 l -1,-2.1406 c 0.77083,-0.4167 1.6302,-0.7708 2.57812,-1.0625 0.94792,-0.2917 1.94271,-0.4375 2.98438,-0.4375 1.06249,0 1.97916,0.1094 2.75,0.3281 0.78124,0.2083 1.42186,0.5469 1.92187,1.0156 0.51041,0.4584 0.89062,1.0469 1.14063,1.7656 0.24999,0.7188 0.37499,1.5886 0.375,2.6094 l 0,11.75 -2.04688,0 m -5.21875,-1.9844 c 0.63541,0 1.22395,-0.099 1.76563,-0.2968 0.54166,-0.1979 1.01041,-0.4948 1.40625,-0.8907 0.39582,-0.4062 0.70311,-0.9114 0.92187,-1.5156 0.22916,-0.6146 0.34374,-1.3333 0.34375,-2.1562 l 0,-1.5469 -2.23437,0.1094 c -0.93751,0.042 -1.72397,0.1458 -2.35938,0.3125 -0.63542,0.1666 -1.14583,0.401 -1.53125,0.7031 -0.375,0.2917 -0.64583,0.651 -0.8125,1.0781 -0.16667,0.4167 -0.25,0.8906 -0.25,1.4219 0,0.9583 0.25,1.6615 0.75,2.1094 0.51042,0.4479 1.17708,0.6718 2,0.6718"
           style="font-size:32px;fill:#b3b3b3;font-family:Droid Sans;-inkscape-font-specification:Droid Sans"
           id="path3029" />
        <path
           d="m 601.12646,1745.244 -5.85937,-17.1562 2.9375,0 3.10937,9.5468 c 0.11458,0.3438 0.25,0.7865 0.40625,1.3282 0.15625,0.5416 0.3125,1.0937 0.46875,1.6562 0.15625,0.5625 0.29687,1.0938 0.42188,1.5938 0.13541,0.5 0.22395,0.8802 0.26562,1.1406 l 0.10938,0 c 0.0521,-0.2604 0.14062,-0.6406 0.26562,-1.1406 0.125,-0.5 0.26562,-1.0313 0.42188,-1.5938 0.15624,-0.5625 0.31249,-1.1146 0.46875,-1.6562 0.15624,-0.5417 0.29166,-0.9844 0.40625,-1.3282 l 3.10937,-9.5468 2.9375,0 -5.85937,17.1562 -3.60938,0"
           style="font-size:32px;fill:#b3b3b3;font-family:Droid Sans;-inkscape-font-specification:Droid Sans"
           id="path3031" />
        <path
           d="m 622.97021,1745.244 -0.57812,-2.375 -0.125,0 c -0.34376,0.4688 -0.68751,0.875 -1.03125,1.2188 -0.34376,0.3333 -0.71876,0.6093 -1.125,0.8281 -0.40626,0.2187 -0.85938,0.3802 -1.35938,0.4844 -0.5,0.1041 -1.07813,0.1562 -1.73437,0.1562 -0.71876,0 -1.38021,-0.1041 -1.98438,-0.3125 -0.60417,-0.1979 -1.13021,-0.5052 -1.57812,-0.9219 -0.4375,-0.427 -0.78125,-0.9583 -1.03125,-1.5937 -0.25,-0.6458 -0.375,-1.4063 -0.375,-2.2813 0,-1.7083 0.59896,-3.0208 1.79687,-3.9375 1.20833,-0.9166 3.04167,-1.4166 5.5,-1.5 l 2.875,-0.1093 0,-1.0782 c -10e-6,-0.6979 -0.0781,-1.2812 -0.23437,-1.75 -0.14584,-0.4687 -0.36459,-0.8437 -0.65625,-1.125 -0.28126,-0.2916 -0.63543,-0.4999 -1.0625,-0.625 -0.41668,-0.1249 -0.89584,-0.1874 -1.4375,-0.1875 -0.86459,10e-5 -1.67188,0.1251 -2.42188,0.375 -0.73958,0.2501 -1.45312,0.5521 -2.14062,0.9063 l -1,-2.1406 c 0.77083,-0.4167 1.6302,-0.7708 2.57812,-1.0625 0.94792,-0.2917 1.94271,-0.4375 2.98438,-0.4375 1.06249,0 1.97916,0.1094 2.75,0.3281 0.78124,0.2083 1.42186,0.5469 1.92187,1.0156 0.51041,0.4584 0.89062,1.0469 1.14063,1.7656 0.24999,0.7188 0.37499,1.5886 0.375,2.6094 l 0,11.75 -2.04688,0 m -5.21875,-1.9844 c 0.63541,0 1.22395,-0.099 1.76563,-0.2968 0.54166,-0.1979 1.01041,-0.4948 1.40625,-0.8907 0.39582,-0.4062 0.70311,-0.9114 0.92187,-1.5156 0.22916,-0.6146 0.34374,-1.3333 0.34375,-2.1562 l 0,-1.5469 -2.23437,0.1094 c -0.93751,0.042 -1.72397,0.1458 -2.35938,0.3125 -0.63542,0.1666 -1.14583,0.401 -1.53125,0.7031 -0.375,0.2917 -0.64583,0.651 -0.8125,1.0781 -0.16667,0.4167 -0.25,0.8906 -0.25,1.4219 0,0.9583 0.25,1.6615 0.75,2.1094 0.51042,0.4479 1.17708,0.6718 2,0.6718"
           style="font-size:32px;fill:#b3b3b3;font-family:Droid Sans;-inkscape-font-specification:Droid Sans"
           id="path3033" />
      </g>
      <g
         style="font-size:12px;font-style:normal;font-variant:normal;font-weight:normal;font-stretch:normal;line-height:125%;letter-spacing:0px;word-spacing:0px;fill:#b3b3b3;fill-opacity:1;stroke:none;font-family:Droid Serif;-inkscape-font-specification:Droid Serif"
         id="text4355-7-4-2-6">
        <path
           d="m 407.54333,1770.2556 0,7.0781 -2.17968,0 0,-17.1328 4.17187,0 c 2.07812,0 3.61327,0.4024 4.60547,1.2071 0.99218,0.8047 1.48827,2.0234 1.48828,3.6562 -1e-5,0.6797 -0.0977,1.2735 -0.29297,1.7813 -0.18751,0.5078 -0.44141,0.9453 -0.76172,1.3125 -0.31251,0.3593 -0.67188,0.6601 -1.07812,0.9023 -0.40626,0.2422 -0.82423,0.4414 -1.25391,0.5977 l 4.66407,7.6757 -2.56641,0 -4.11328,-7.0781 -2.6836,0 m 0,-1.8515 1.92188,0 c 0.70312,0 1.30077,-0.066 1.79297,-0.1993 0.49218,-0.1406 0.89452,-0.3437 1.20703,-0.6093 0.3203,-0.2735 0.55077,-0.6094 0.69141,-1.0079 0.14842,-0.4062 0.22264,-0.8788 0.22265,-1.4179 -1e-5,-0.5625 -0.082,-1.0391 -0.24609,-1.4297 -0.15626,-0.3906 -0.39845,-0.7109 -0.72656,-0.9609 -0.32033,-0.25 -0.73048,-0.4297 -1.23047,-0.5391 -0.4922,-0.1172 -1.07813,-0.1758 -1.75782,-0.1758 l -1.875,0 0,6.3399"
           style="font-size:24px;fill:#b3b3b3;font-family:Droid Sans;-inkscape-font-specification:Droid Sans"
           id="path3009" />
        <path
           d="m 427.55896,1777.3337 -0.31641,-1.7226 -0.11718,0 c -0.19533,0.3359 -0.4297,0.6289 -0.70313,0.8789 -0.26563,0.2422 -0.5586,0.4453 -0.87891,0.6094 -0.32032,0.1562 -0.66016,0.2734 -1.01953,0.3515 -0.35938,0.078 -0.72657,0.1172 -1.10156,0.1172 -0.71094,0 -1.33594,-0.09 -1.875,-0.2695 -0.53907,-0.1797 -0.98828,-0.461 -1.34766,-0.8438 -0.35937,-0.3828 -0.63281,-0.8711 -0.82031,-1.4648 -0.17969,-0.5938 -0.26953,-1.3008 -0.26953,-2.1211 l 0,-8.4023 2.13281,0 0,8.2851 c 0,1.0156 0.20703,1.7774 0.6211,2.2852 0.41405,0.5078 1.05468,0.7617 1.92187,0.7617 0.63281,0 1.16406,-0.1016 1.59375,-0.3047 0.42968,-0.2031 0.77343,-0.5 1.03125,-0.8906 0.26562,-0.3985 0.45312,-0.8867 0.5625,-1.4649 0.11718,-0.5781 0.17577,-1.2422 0.17578,-1.9922 l 0,-6.6796 2.13282,0 0,12.8671 -1.72266,0"
           style="font-size:24px;fill:#b3b3b3;font-family:Droid Sans;-inkscape-font-specification:Droid Sans"
           id="path3011" />
        <path
           d="m 441.0824,1773.8064 c -1e-5,0.625 -0.11329,1.1719 -0.33985,1.6406 -0.22657,0.4688 -0.55469,0.8633 -0.98437,1.1836 -0.42188,0.3125 -0.9336,0.5469 -1.53516,0.7031 -0.60157,0.1563 -1.27735,0.2344 -2.02734,0.2344 -0.85157,0 -1.58204,-0.07 -2.19141,-0.2109 -0.60937,-0.1328 -1.14453,-0.3321 -1.60547,-0.5977 l 0,-1.9453 c 0.24219,0.125 0.51172,0.25 0.8086,0.375 0.29687,0.1172 0.60937,0.2227 0.9375,0.3164 0.32812,0.094 0.66406,0.1719 1.00781,0.2344 0.35156,0.055 0.69921,0.082 1.04297,0.082 0.50781,0 0.93749,-0.043 1.28906,-0.1289 0.35937,-0.086 0.64843,-0.207 0.86719,-0.3633 0.22655,-0.164 0.39062,-0.3593 0.49219,-0.5859 0.10155,-0.2344 0.15233,-0.4922 0.15234,-0.7734 -1e-5,-0.2422 -0.0391,-0.461 -0.11719,-0.6563 -0.0781,-0.1953 -0.22266,-0.3867 -0.43359,-0.5742 -0.20313,-0.1953 -0.48438,-0.3906 -0.84375,-0.5859 -0.35938,-0.1954 -0.82032,-0.4141 -1.38281,-0.6563 -0.56251,-0.2422 -1.07032,-0.4805 -1.52344,-0.7148 -0.44532,-0.2344 -0.82422,-0.4961 -1.13672,-0.7852 -0.3125,-0.2891 -0.55469,-0.6211 -0.72656,-0.9961 -0.16407,-0.3828 -0.2461,-0.8359 -0.2461,-1.3594 0,-0.5468 0.10547,-1.0312 0.31641,-1.4531 0.21875,-0.4297 0.52344,-0.789 0.91406,-1.0781 0.39062,-0.2891 0.85937,-0.5078 1.40625,-0.6563 0.54687,-0.1484 1.15625,-0.2226 1.82813,-0.2226 0.7578,0 1.44921,0.082 2.07422,0.2461 0.6328,0.164 1.23046,0.3789 1.79296,0.6445 l -0.73828,1.7227 c -0.50782,-0.2266 -1.03125,-0.4219 -1.57031,-0.586 -0.53126,-0.1718 -1.07422,-0.2578 -1.62891,-0.2578 -0.79687,0 -1.38672,0.1328 -1.76953,0.3984 -0.38281,0.2579 -0.57422,0.629 -0.57422,1.1133 0,0.2735 0.043,0.5118 0.12891,0.7149 0.0937,0.2031 0.25,0.3945 0.46875,0.5742 0.21875,0.1797 0.51172,0.3633 0.87891,0.5508 0.36718,0.1797 0.82421,0.3828 1.37109,0.6093 0.56249,0.2344 1.06249,0.4688 1.5,0.7032 0.44531,0.2344 0.82421,0.5 1.13672,0.7968 0.31249,0.2891 0.55077,0.6211 0.71484,0.9961 0.16406,0.375 0.24609,0.8243 0.2461,1.3477"
           style="font-size:24px;fill:#b3b3b3;font-family:Droid Sans;-inkscape-font-specification:Droid Sans"
           id="path3013" />
        <path
           d="m 448.10193,1775.822 c 0.14062,0 0.29687,-0.01 0.46875,-0.023 0.17968,-0.016 0.35155,-0.035 0.51562,-0.059 0.16406,-0.023 0.3125,-0.051 0.44532,-0.082 0.14061,-0.031 0.24608,-0.059 0.3164,-0.082 l 0,1.6172 c -0.10157,0.047 -0.23047,0.094 -0.38672,0.1406 -0.15625,0.047 -0.32813,0.086 -0.51562,0.1172 -0.18751,0.039 -0.38282,0.066 -0.58594,0.082 -0.20313,0.023 -0.40235,0.035 -0.59766,0.035 -0.48438,0 -0.93359,-0.062 -1.34765,-0.1875 -0.41407,-0.125 -0.77344,-0.3398 -1.07813,-0.6445 -0.29687,-0.3047 -0.53125,-0.7149 -0.70312,-1.2305 -0.17188,-0.5234 -0.25782,-1.1797 -0.25781,-1.9687 l 0,-7.4649 -1.81641,0 0,-0.9492 1.81641,-0.9141 0.91406,-2.6953 1.23047,0 0,2.9532 3.23437,0 0,1.6054 -3.23437,0 0,7.4649 c -1e-5,0.7578 0.12109,1.3281 0.36328,1.7109 0.24999,0.3828 0.65624,0.5742 1.21875,0.5742"
           style="font-size:24px;fill:#b3b3b3;font-family:Droid Sans;-inkscape-font-specification:Droid Sans"
           id="path3015" />
      </g>
      <g
         style="font-size:12px;font-style:normal;font-variant:normal;font-weight:normal;font-stretch:normal;line-height:125%;letter-spacing:0px;word-spacing:0px;fill:#b3b3b3;fill-opacity:1;stroke:none;font-family:Droid Serif;-inkscape-font-specification:Droid Serif"
         id="text4355-7-4-2-4">
        <path
           d="m 549.07172,1807.8212 c -0.34831,0 -0.66407,0.067 -0.94727,0.2002 -0.28321,0.1302 -0.52572,0.319 -0.72754,0.5664 -0.19857,0.2474 -0.35319,0.5485 -0.46387,0.9033 -0.10742,0.3548 -0.16113,0.7552 -0.16113,1.2012 0,0.4589 0.0472,0.8675 0.1416,1.2255 0.0977,0.3549 0.24251,0.6543 0.43457,0.8985 0.19206,0.2441 0.43132,0.4297 0.71778,0.5566 0.28645,0.127 0.62174,0.1905 1.00586,0.1905 0.28971,0 0.56477,-0.028 0.82519,-0.083 0.26041,-0.058 0.51757,-0.1253 0.77149,-0.2001 l 0,0.791 c -0.12696,0.049 -0.25392,0.093 -0.38086,0.1318 -0.12696,0.036 -0.26042,0.065 -0.40039,0.088 -0.13673,0.023 -0.28484,0.039 -0.44434,0.049 -0.15625,0.013 -0.33041,0.02 -0.52246,0.02 -0.53386,0 -0.9961,-0.088 -1.38672,-0.2637 -0.39063,-0.1758 -0.71452,-0.4248 -0.97168,-0.7471 -0.25391,-0.3223 -0.44271,-0.7096 -0.56641,-1.1621 -0.12369,-0.4525 -0.18554,-0.9538 -0.18554,-1.5039 0,-0.5404 0.07,-1.0352 0.20996,-1.4844 0.14323,-0.4492 0.35156,-0.8349 0.625,-1.1572 0.27669,-0.3223 0.61849,-0.5729 1.02539,-0.752 0.4069,-0.179 0.87402,-0.2685 1.40137,-0.2685 0.35155,0 0.68684,0.036 1.00586,0.1074 0.319,0.072 0.60709,0.1758 0.86425,0.3125 l -0.38086,0.7617 c -0.20508,-0.1041 -0.42806,-0.1937 -0.66894,-0.2685 -0.24089,-0.075 -0.51433,-0.1123 -0.82031,-0.1123"
           style="font-size:10px;fill:#b3b3b3;font-family:Droid Sans;-inkscape-font-specification:Droid Sans"
           id="path2995" />
        <path
           d="m 556.03461,1809.9012 -0.30762,1.6016 1.36719,0 0,0.669 -1.49903,0 -0.40039,2.0898 -0.71777,0 0.41016,-2.0898 -1.4209,0 -0.40039,2.0898 -0.70313,0 0.38086,-2.0898 -1.25976,0 0,-0.669 1.3916,0 0.31738,-1.6016 -1.33789,0 0,-0.6689 1.45996,0 0.40039,-2.1094 0.71777,0 -0.40039,2.1094 1.43067,0 0.41015,-2.1094 0.70313,0 -0.41016,2.1094 1.2793,0 0,0.6689 -1.41113,0 m -2.44141,1.6016 1.4209,0 0.3125,-1.6016 -1.4209,0 -0.3125,1.6016"
           style="font-size:10px;fill:#b3b3b3;font-family:Droid Sans;-inkscape-font-specification:Droid Sans"
           id="path2997" />
      </g>
      <g
         style="font-size:12px;font-style:normal;font-variant:normal;font-weight:normal;font-stretch:normal;line-height:125%;letter-spacing:0px;word-spacing:0px;fill:#b3b3b3;fill-opacity:1;stroke:none;font-family:Droid Serif;-inkscape-font-specification:Droid Serif"
         id="text4355-7-4-2-6-0">
        <path
           d="m 458.83218,1718.8329 0,4.1289 -1.27148,0 0,-9.9941 2.43359,0 c 1.21224,0 2.10774,0.2347 2.68653,0.7041 0.57877,0.4694 0.86815,1.1803 0.86816,2.1328 -10e-6,0.3965 -0.057,0.7428 -0.1709,1.039 -0.10938,0.2963 -0.25749,0.5515 -0.44433,0.7657 -0.1823,0.2096 -0.39194,0.385 -0.62891,0.5263 -0.23698,0.1413 -0.4808,0.2575 -0.73145,0.3487 l 2.72071,4.4775 -1.49707,0 -2.39942,-4.1289 -1.56543,0 m 0,-1.0801 1.1211,0 c 0.41015,0 0.75878,-0.039 1.0459,-0.1162 0.2871,-0.082 0.5218,-0.2005 0.7041,-0.3555 0.18684,-0.1595 0.32128,-0.3554 0.40332,-0.5879 0.0866,-0.2369 0.12987,-0.5127 0.12988,-0.8271 -10e-6,-0.3281 -0.0479,-0.6061 -0.14355,-0.834 -0.0912,-0.2279 -0.23243,-0.4147 -0.42383,-0.5605 -0.18686,-0.1459 -0.42611,-0.2507 -0.71778,-0.3145 -0.28711,-0.068 -0.62891,-0.1025 -1.02539,-0.1025 l -1.09375,0 0,3.6982"
           style="font-size:14px;fill:#b3b3b3;font-family:Droid Sans;-inkscape-font-specification:Droid Sans"
           id="path3018" />
        <path
           d="m 470.50797,1722.9618 -0.18458,-1.0049 -0.0684,0 c -0.11394,0.196 -0.25066,0.3669 -0.41016,0.5127 -0.15495,0.1413 -0.32585,0.2598 -0.5127,0.3555 -0.18685,0.091 -0.38509,0.1595 -0.59472,0.2051 -0.20964,0.046 -0.42383,0.068 -0.64258,0.068 -0.41472,0 -0.7793,-0.052 -1.09375,-0.1572 -0.31446,-0.1048 -0.5765,-0.2689 -0.78613,-0.4922 -0.20964,-0.2233 -0.36915,-0.5081 -0.47852,-0.8545 -0.10482,-0.3463 -0.15723,-0.7588 -0.15723,-1.2373 l 0,-4.9014 1.24414,0 0,4.833 c 0,0.5925 0.12077,1.0368 0.36231,1.333 0.24153,0.2963 0.61523,0.4444 1.12109,0.4444 0.36914,0 0.67904,-0.059 0.92969,-0.1778 0.25065,-0.1184 0.45117,-0.2916 0.60156,-0.5195 0.15495,-0.2324 0.26432,-0.5172 0.32813,-0.8545 0.0683,-0.3372 0.10253,-0.7246 0.10254,-1.1621 l 0,-3.8965 1.24414,0 0,7.5059 -1.00488,0"
           style="font-size:14px;fill:#b3b3b3;font-family:Droid Sans;-inkscape-font-specification:Droid Sans"
           id="path3020" />
        <path
           d="m 477.29605,1715.3192 c 0.42838,0 0.81803,0.082 1.16895,0.2461 0.3509,0.1641 0.6494,0.4102 0.8955,0.7383 0.25065,0.3236 0.44433,0.7269 0.58106,1.2099 0.13671,0.4831 0.20507,1.0437 0.20508,1.6817 -10e-6,0.6426 -0.0684,1.2077 -0.20508,1.6953 -0.13673,0.4831 -0.33041,0.8887 -0.58106,1.2168 -0.2461,0.3281 -0.5446,0.5765 -0.8955,0.7451 -0.35092,0.1641 -0.74057,0.2461 -1.16895,0.2461 -0.26888,0 -0.5127,-0.03 -0.73144,-0.089 -0.21876,-0.059 -0.417,-0.1367 -0.59473,-0.2324 -0.17318,-0.1002 -0.32813,-0.2164 -0.46484,-0.3486 -0.13217,-0.1322 -0.25066,-0.2712 -0.35547,-0.417 l -0.082,0 -0.25293,0.9502 -0.90918,0 0,-10.6367 1.24414,0 0,2.5703 c -10e-6,0.1595 -0.002,0.3304 -0.007,0.5127 -0.005,0.1777 -0.0114,0.3441 -0.0205,0.499 -0.009,0.1823 -0.0182,0.36 -0.0273,0.5332 l 0.0547,0 c 0.10481,-0.1595 0.2233,-0.3076 0.35547,-0.4443 0.13215,-0.1367 0.28482,-0.2552 0.458,-0.3555 0.17773,-0.1003 0.37598,-0.1777 0.59473,-0.2324 0.21875,-0.059 0.46484,-0.089 0.73828,-0.089 m -0.23926,1.0322 c -0.36458,0 -0.66992,0.059 -0.91601,0.1778 -0.24154,0.1139 -0.43751,0.2894 -0.58789,0.5263 -0.14584,0.237 -0.25066,0.5333 -0.31446,0.8887 -0.0592,0.3555 -0.0889,0.7725 -0.0889,1.251 -10e-6,0.4603 0.0296,0.8704 0.0889,1.2305 0.0638,0.3554 0.16862,0.6562 0.31446,0.9023 0.15038,0.2415 0.34863,0.4261 0.59472,0.5537 0.24609,0.1231 0.55371,0.1846 0.92286,0.1846 0.61522,0 1.0664,-0.2484 1.35351,-0.7451 0.29166,-0.4968 0.43749,-1.21 0.4375,-2.1397 -10e-6,-0.9479 -0.14584,-1.6566 -0.4375,-2.126 -0.28711,-0.4694 -0.74284,-0.7041 -1.36719,-0.7041"
           style="font-size:14px;fill:#b3b3b3;font-family:Droid Sans;-inkscape-font-specification:Droid Sans"
           id="path3022" />
        <path
           d="m 480.98746,1715.4559 1.29199,0 1.46973,4.1905 c 0.0638,0.1823 0.1276,0.3737 0.1914,0.5742 0.0684,0.2005 0.12988,0.401 0.18457,0.6015 0.0592,0.2006 0.10937,0.3943 0.15039,0.5811 0.041,0.1868 0.0706,0.36 0.0889,0.5195 l 0.041,0 c 0.0228,-0.1139 0.0592,-0.2688 0.10937,-0.4648 0.0501,-0.196 0.10482,-0.4033 0.16406,-0.6221 0.0638,-0.2233 0.1276,-0.442 0.19141,-0.6562 0.0684,-0.2142 0.1276,-0.3965 0.17773,-0.5469 l 1.36036,-4.1768 1.28515,0 -2.96679,8.4834 c -0.12761,0.3692 -0.26661,0.6996 -0.417,0.9912 -0.14583,0.2963 -0.31673,0.5469 -0.51269,0.752 -0.19597,0.2051 -0.42611,0.3623 -0.69043,0.4717 -0.26433,0.1139 -0.57878,0.1709 -0.94336,0.1709 -0.23698,0 -0.44206,-0.014 -0.61524,-0.041 -0.17317,-0.023 -0.32129,-0.048 -0.44433,-0.075 l 0,-0.9912 c 0.0957,0.023 0.21647,0.041 0.3623,0.055 0.14584,0.018 0.2985,0.027 0.45801,0.027 0.21875,0 0.40788,-0.027 0.56738,-0.082 0.15951,-0.05 0.2985,-0.1254 0.417,-0.2256 0.11848,-0.1003 0.21874,-0.2233 0.30078,-0.3692 0.0866,-0.1458 0.16406,-0.3122 0.23242,-0.499 l 0.38965,-1.0937 -2.84375,-7.5743"
           style="font-size:14px;fill:#b3b3b3;font-family:Droid Sans;-inkscape-font-specification:Droid Sans"
           id="path3024" />
      </g>
    </g>
  </g>
</svg>
