<?xml version="1.0" encoding="UTF-8" standalone="no"?>
<!-- Created with Inkscape (http://www.inkscape.org/) -->

<svg
   xmlns:dc="http://purl.org/dc/elements/1.1/"
   xmlns:cc="http://creativecommons.org/ns#"
   xmlns:rdf="http://www.w3.org/1999/02/22-rdf-syntax-ns#"
   xmlns:svg="http://www.w3.org/2000/svg"
   xmlns="http://www.w3.org/2000/svg"
   xmlns:sodipodi="http://sodipodi.sourceforge.net/DTD/sodipodi-0.dtd"
   xmlns:inkscape="http://www.inkscape.org/namespaces/inkscape"
   width="160"
   height="80"
   id="svg3484"
   version="1.1"
   inkscape:version="0.48.4 r9939"
   sodipodi:docname="clock.svg">
  <defs
     id="defs3486" />
  <sodipodi:namedview
     id="base"
     pagecolor="#ffffff"
     bordercolor="#666666"
     borderopacity="1.0"
     inkscape:pageopacity="0.0"
     inkscape:pageshadow="2"
     inkscape:zoom="1"
     inkscape:cx="79.02211"
     inkscape:cy="51.918947"
     inkscape:document-units="px"
     inkscape:current-layer="layer1"
     showgrid="false"
     inkscape:window-width="956"
     inkscape:window-height="1053"
     inkscape:window-x="960"
     inkscape:window-y="0"
     inkscape:window-maximized="0" />
  <metadata
     id="metadata3489">
    <rdf:RDF>
      <cc:Work
         rdf:about="">
        <dc:format>image/svg+xml</dc:format>
        <dc:type
           rdf:resource="http://purl.org/dc/dcmitype/StillImage" />
        <dc:title></dc:title>
      </cc:Work>
    </rdf:RDF>
  </metadata>
  <g
     inkscape:label="Layer 1"
     inkscape:groupmode="layer"
     id="layer1"
     transform="translate(0,-972.36218)">
    <g
       id="g4532"
       transform="matrix(0.60952381,0,0,0.60952381,-233.68935,-60.234118)">
      <path
         inkscape:export-ydpi="90"
         inkscape:export-xdpi="90"
         inkscape:export-filename="/home/siavash/Desktop/bindings2.png"
         inkscape:connector-curvature="0"
         id="path3424-76-5-1-1"
         d="m 471.78721,1696.1033 c -12.46096,0 -22.5625,10.1015 -22.5625,22.5625 0,12.4609 10.10154,22.5625 22.5625,22.5625 2.24514,0 4.39083,-0.3269 6.4375,-0.9375 l 6.875,19.9687 c -4.3691,2.9667 -7.87506,7.1081 -10.125,11.9376 l -14.03125,-3.0626 c -0.28364,-18.4466 -15.32956,-33.3124 -33.84375,-33.3124 -18.69141,-1e-4 -33.84373,15.1523 -33.84373,33.8437 0,18.6915 15.15232,33.8437 33.84373,33.8437 13.34467,0 24.86438,-7.748 30.375,-18.9687 l 14.8125,2.0313 c 1.03668,15.258 13.76023,27.3124 29.28128,27.3124 10.6966,0 20.0633,-5.7273 25.1875,-14.2812 l 12.8125,6.2188 c -0.6394,1.5116 -1,3.1617 -1,4.9062 0,6.9781 5.6468,12.625 12.625,12.625 6.9781,0 12.6562,-5.6469 12.6562,-12.625 0,-6.9782 -5.6781,-12.625 -12.6562,-12.625 -4.1761,0 -7.8559,2.0336 -10.1563,5.1562 l -11.8125,-8.9687 c 1.072,-3.0469 1.6563,-6.3365 1.6563,-9.75 0,-2.1821 -0.2355,-4.2975 -0.6875,-6.3437 l 37.125,-12.1563 c 7.2962,6.9976 17.1859,11.2813 28.0937,11.2813 22.4298,0 40.625,-18.1641 40.625,-40.5938 0,-22.4298 -18.1952,-40.625 -40.625,-40.625 -22.4297,0 -40.5937,18.1952 -40.5937,40.625 0,2.3548 0.209,4.6612 0.5937,6.9062 l -32.8437,20.4376 c -5.3266,-5.4572 -12.7719,-8.8438 -21,-8.8438 -2.7373,0 -5.3927,0.3612 -7.9063,1.0625 l -9.56248,-18.7187 c 6.15998,-4.0284 10.24998,-10.9968 10.24998,-18.9063 0,-12.461 -10.10152,-22.5625 -22.56248,-22.5625 z"
         style="color:#000000;fill:#e6e6e6;fill-opacity:1;fill-rule:nonzero;stroke:#b3b3b3;stroke-width:4;stroke-miterlimit:4;stroke-opacity:1;stroke-dasharray:none;marker:none;visibility:visible;display:inline;overflow:visible;enable-background:accumulate" />
      <text
         inkscape:export-ydpi="90"
         inkscape:export-xdpi="90"
         inkscape:export-filename="/home/siavash/Desktop/bindings2.png"
         sodipodi:linespacing="125%"
         id="text4355-7-4"
         y="1791.0293"
         x="477.81403"
         style="font-size:12px;font-style:normal;font-variant:normal;font-weight:normal;font-stretch:normal;line-height:125%;letter-spacing:0px;word-spacing:0px;fill:#b3b3b3;fill-opacity:1;stroke:none;font-family:Droid Serif;-inkscape-font-specification:Droid Serif"
         xml:space="preserve"><tspan
           style="font-size:18px;font-style:normal;font-variant:normal;font-weight:normal;font-stretch:normal;fill:#b3b3b3;font-family:Droid Sans;-inkscape-font-specification:Droid Sans"
           y="1791.0293"
           x="477.81403"
           id="tspan4357-1-6"
           sodipodi:role="line">GLFW</tspan></text>
      <text
         inkscape:export-ydpi="90"
         inkscape:export-xdpi="90"
         inkscape:export-filename="/home/siavash/Desktop/bindings2.png"
         sodipodi:linespacing="125%"
         id="text4355-7-4-2"
         y="1745.244"
         x="569.57959"
         style="font-size:12px;font-style:normal;font-variant:normal;font-weight:normal;font-stretch:normal;line-height:125%;letter-spacing:0px;word-spacing:0px;fill:#b3b3b3;fill-opacity:1;stroke:none;font-family:Droid Serif;-inkscape-font-specification:Droid Serif"
         xml:space="preserve"><tspan
           style="font-size:32px;font-style:normal;font-variant:normal;font-weight:normal;font-stretch:normal;fill:#b3b3b3;font-family:Droid Sans;-inkscape-font-specification:Droid Sans"
           y="1745.244"
           x="569.57959"
           id="tspan4357-1-6-4"
           sodipodi:role="line">Java</tspan></text>
      <text
         inkscape:export-ydpi="90"
         inkscape:export-xdpi="90"
         inkscape:export-filename="/home/siavash/Desktop/bindings2.png"
         sodipodi:linespacing="125%"
         id="text4355-7-4-2-6"
         y="1777.3337"
         x="403.03162"
         style="font-size:12px;font-style:normal;font-variant:normal;font-weight:normal;font-stretch:normal;line-height:125%;letter-spacing:0px;word-spacing:0px;fill:#b3b3b3;fill-opacity:1;stroke:none;font-family:Droid Serif;-inkscape-font-specification:Droid Serif"
         xml:space="preserve"><tspan
           style="font-size:24px;font-style:normal;font-variant:normal;font-weight:normal;font-stretch:normal;fill:#b3b3b3;font-family:Droid Sans;-inkscape-font-specification:Droid Sans"
           y="1777.3337"
           x="403.03162"
           id="tspan4357-1-6-4-2"
           sodipodi:role="line">Rust</tspan></text>
      <text
         inkscape:export-ydpi="90"
         inkscape:export-xdpi="90"
         inkscape:export-filename="/home/siavash/Desktop/bindings2.png"
         sodipodi:linespacing="125%"
         id="text4355-7-4-2-4"
         y="1814.2616"
         x="545.19965"
         style="font-size:12px;font-style:normal;font-variant:normal;font-weight:normal;font-stretch:normal;line-height:125%;letter-spacing:0px;word-spacing:0px;fill:#b3b3b3;fill-opacity:1;stroke:none;font-family:Droid Serif;-inkscape-font-specification:Droid Serif"
         xml:space="preserve"><tspan
           style="font-size:10px;font-style:normal;font-variant:normal;font-weight:normal;font-stretch:normal;fill:#b3b3b3;font-family:Droid Sans;-inkscape-font-specification:Droid Sans"
           y="1814.2616"
           x="545.19965"
           id="tspan4357-1-6-4-7"
           sodipodi:role="line">C#</tspan></text>
      <text
         inkscape:export-ydpi="90"
         inkscape:export-xdpi="90"
         inkscape:export-filename="/home/siavash/Desktop/bindings2.png"
         sodipodi:linespacing="125%"
         id="text4355-7-4-2-6-0"
         y="1722.9618"
         x="456.20035"
         style="font-size:12px;font-style:normal;font-variant:normal;font-weight:normal;font-stretch:normal;line-height:125%;letter-spacing:0px;word-spacing:0px;fill:#b3b3b3;fill-opacity:1;stroke:none;font-family:Droid Serif;-inkscape-font-specification:Droid Serif"
         xml:space="preserve"><tspan
           style="font-size:14px;font-style:normal;font-variant:normal;font-weight:normal;font-stretch:normal;fill:#b3b3b3;font-family:Droid Sans;-inkscape-font-specification:Droid Sans"
           y="1722.9618"
           x="456.20035"
           id="tspan4357-1-6-4-2-5"
           sodipodi:role="line">Ruby</tspan></text>
    </g>
  </g>
</svg>
