<?xml version="1.0" encoding="UTF-8" standalone="no"?>
<!-- Created with Inkscape (http://www.inkscape.org/) -->

<svg
   xmlns:dc="http://purl.org/dc/elements/1.1/"
   xmlns:cc="http://creativecommons.org/ns#"
   xmlns:rdf="http://www.w3.org/1999/02/22-rdf-syntax-ns#"
   xmlns:svg="http://www.w3.org/2000/svg"
   xmlns="http://www.w3.org/2000/svg"
   xmlns:sodipodi="http://sodipodi.sourceforge.net/DTD/sodipodi-0.dtd"
   xmlns:inkscape="http://www.inkscape.org/namespaces/inkscape"
   width="160"
   height="80"
   id="svg3484"
   version="1.1"
   inkscape:version="0.48.4 r9939"
   sodipodi:docname="New document 2">
  <defs
     id="defs3486" />
  <sodipodi:namedview
     id="base"
     pagecolor="#ffffff"
     bordercolor="#666666"
     borderopacity="1.0"
     inkscape:pageopacity="0.0"
     inkscape:pageshadow="2"
     inkscape:zoom="1"
     inkscape:cx="79.02211"
     inkscape:cy="51.918947"
     inkscape:document-units="px"
     inkscape:current-layer="layer1"
     showgrid="false"
     inkscape:window-width="956"
     inkscape:window-height="1053"
     inkscape:window-x="960"
     inkscape:window-y="0"
     inkscape:window-maximized="0" />
  <metadata
     id="metadata3489">
    <rdf:RDF>
      <cc:Work
         rdf:about="">
        <dc:format>image/svg+xml</dc:format>
        <dc:type
           rdf:resource="http://purl.org/dc/dcmitype/StillImage" />
        <dc:title></dc:title>
      </cc:Work>
    </rdf:RDF>
  </metadata>
  <g
     inkscape:label="Layer 1"
     inkscape:groupmode="layer"
     id="layer1"
     transform="translate(0,-972.36218)">
    <g
       id="g5285"
       transform="matrix(0.54031207,0,0,0.54031207,-30.277907,975.35245)"
       inkscape:export-filename="/home/siavash/Documents/Development/GLFW/website/img/fast.png"
       inkscape:export-xdpi="90"
       inkscape:export-ydpi="90">
      <path
         transform="matrix(0.9235562,0.38346309,-0.38346309,0.9235562,260.95555,-473.74953)"
         d="m 224.57485,529.8797 c 0,36.52174 -29.60672,66.12846 -66.12845,66.12846 -36.52174,0 -66.12846,-29.60672 -66.12846,-66.12846 0,-36.52174 29.60672,-66.12846 66.12846,-66.12846 36.52173,0 66.12845,29.60672 66.12845,66.12846 z"
         sodipodi:ry="66.128456"
         sodipodi:rx="66.128456"
         sodipodi:cy="529.8797"
         sodipodi:cx="158.4464"
         id="path3101"
         style="fill:#b3b3b3;fill-opacity:1;stroke:none"
         sodipodi:type="arc" />
      <rect
         transform="matrix(0.97356758,-0.22839912,0.22839912,0.97356758,0,0)"
         y="53.1255"
         x="172.30838"
         height="5.2378974"
         width="17.677904"
         id="rect3871"
         style="fill:#b3b3b3;fill-opacity:1;stroke:none" />
      <rect
         rx="4"
         ry="4"
         transform="matrix(0.97428377,-0.2253245,0.2294844,0.97331234,0,0)"
         y="38.371925"
         x="168.31355"
         height="14.832067"
         width="25.535017"
         id="rect3871-7"
         style="fill:#b3b3b3;fill-opacity:1;stroke:none" />
      <path
         transform="matrix(0.82754294,0.34359813,-0.34359813,0.82754294,255.04487,-416.55759)"
         d="m 224.57485,529.8797 c 0,36.52174 -29.60672,66.12846 -66.12845,66.12846 -36.52174,0 -66.12846,-29.60672 -66.12846,-66.12846 0,-36.52174 29.60672,-66.12846 66.12846,-66.12846 36.52173,0 66.12845,29.60672 66.12845,66.12846 z"
         sodipodi:ry="66.128456"
         sodipodi:rx="66.128456"
         sodipodi:cy="529.8797"
         sodipodi:cx="158.4464"
         id="path3101-2"
         style="fill:#e6e6e6;fill-opacity:1;stroke:none"
         sodipodi:type="arc" />
      <path
         sodipodi:nodetypes="ccccc"
         inkscape:connector-curvature="0"
         id="path3205"
         d="m 201.68599,82.183964 1.09397,3.283286 1.95784,-2.853705 6.66599,-58.411572 z"
         style="fill:#b3b3b3;fill-opacity:1;stroke:none" />
    </g>
  </g>
</svg>
