<?xml version="1.0" encoding="UTF-8" standalone="no"?>
<!-- Created with Inkscape (http://www.inkscape.org/) -->

<svg
   xmlns:dc="http://purl.org/dc/elements/1.1/"
   xmlns:cc="http://creativecommons.org/ns#"
   xmlns:rdf="http://www.w3.org/1999/02/22-rdf-syntax-ns#"
   xmlns:svg="http://www.w3.org/2000/svg"
   xmlns="http://www.w3.org/2000/svg"
   xmlns:sodipodi="http://sodipodi.sourceforge.net/DTD/sodipodi-0.dtd"
   xmlns:inkscape="http://www.inkscape.org/namespaces/inkscape"
   width="160"
   height="80"
   id="svg3484"
   version="1.1"
   inkscape:version="0.91 r13725"
   sodipodi:docname="doc.svg"
   inkscape:export-xdpi="90"
   inkscape:export-ydpi="90">
  <defs
     id="defs3486" />
  <sodipodi:namedview
     id="base"
     pagecolor="#ffffff"
     bordercolor="#666666"
     borderopacity="1.0"
     inkscape:pageopacity="0.0"
     inkscape:pageshadow="2"
     inkscape:zoom="5.6474938"
     inkscape:cx="90.761005"
     inkscape:cy="38.220348"
     inkscape:document-units="px"
     inkscape:current-layer="layer1"
     showgrid="false"
     inkscape:window-width="1366"
     inkscape:window-height="713"
     inkscape:window-x="0"
     inkscape:window-y="26"
     inkscape:window-maximized="1" />
  <metadata
     id="metadata3489">
    <rdf:RDF>
      <cc:Work
         rdf:about="">
        <dc:format>image/svg+xml</dc:format>
        <dc:type
           rdf:resource="http://purl.org/dc/dcmitype/StillImage" />
        <dc:title />
      </cc:Work>
    </rdf:RDF>
  </metadata>
  <g
     inkscape:label="Layer 1"
     inkscape:groupmode="layer"
     id="layer1"
     transform="translate(0,-972.36218)">
    <g
       id="g4579">
      <rect
         ry="2.8353639"
         rx="1.7567474"
         y="972.36218"
         x="47.621582"
         height="80"
         width="64.756828"
         id="rect5333-5"
         style="fill:#b3b3b3;fill-opacity:1;stroke:none" />
      <rect
         ry="2.8353639"
         rx="0.41685534"
         y="972.36218"
         x="47.621582"
         height="80"
         width="15.366028"
         id="rect5333-4-7"
         style="fill:#999999;fill-opacity:1;stroke:none" />
      <rect
         transform="matrix(0,-1,1,0,0,0)"
         ry="0.038900178"
         rx="2.1550932"
         y="52.21682"
         x="-1052.0825"
         height="1.0975714"
         width="79.440575"
         id="rect5333-9-4-1"
         style="fill:#b3b3b3;fill-opacity:1;stroke:none" />
      <rect
         ry="0.27758804"
         rx="1.6525335"
         y="1041.7329"
         x="49.816727"
         height="7.8321662"
         width="60.915325"
         id="rect5333-9-6"
         style="fill:#f9f9f9;fill-opacity:1;stroke:none" />
      <g
         id="text4552"
         style="font-style:normal;font-weight:normal;font-size:40px;line-height:125%;font-family:sans-serif;letter-spacing:0px;word-spacing:0px;fill:#ececec;fill-opacity:1;stroke:none;stroke-width:1px;stroke-linecap:butt;stroke-linejoin:miter;stroke-opacity:1">
        <path
           id="path4559"
           style="font-style:normal;font-variant:normal;font-weight:500;font-stretch:normal;font-size:15px;line-height:125%;font-family:'Century Schoolbook L';-inkscape-font-specification:'Century Schoolbook L, Medium';text-align:start;writing-mode:lr-tb;text-anchor:start;fill:#ececec;fill-opacity:1"
           d="m 69.518547,998.28159 0,0.435 c 0,0.63 -0.135,0.705 -1.335,0.705 l -0.285,0 0,0.70501 5.04,0 c 1.335,0 2.355,-0.21001 3.15,-0.66001 1.515,-0.855 2.355,-2.565 2.355,-4.815 0,-2.055 -0.75,-3.69 -2.13,-4.59 -0.825,-0.525 -1.935,-0.765 -3.645,-0.765 l -4.77,0 0,0.705 0.285,0 c 1.2,0 1.335,0.075 1.335,0.705 l 0,0.435 0,7.14 z m 2.535,1.14 c -0.75,0 -0.855,-0.09 -0.855,-0.825 l 0,-7.755 c 0,-0.735 0.105,-0.84 0.855,-0.84 l 0.78,0 c 2.565,0 3.63,1.395 3.63,4.71 0,3.36 -0.975,4.71 -3.39,4.71 l -1.02,0 z" />
        <path
           id="path4561"
           style="font-style:normal;font-variant:normal;font-weight:500;font-stretch:normal;font-size:15px;line-height:125%;font-family:'Century Schoolbook L';-inkscape-font-specification:'Century Schoolbook L, Medium';text-align:start;writing-mode:lr-tb;text-anchor:start;fill:#ececec;fill-opacity:1"
           d="m 82.903703,992.91159 c -1.83,0 -3.27,1.635 -3.27,3.735 0,2.055 1.44,3.70501 3.24,3.70501 1.8,0 3.24,-1.65001 3.24,-3.72001 0,-2.055 -1.44,-3.72 -3.21,-3.72 z m 0,0.645 c 1.05,0 1.635,1.095 1.635,3.075 0,1.995 -0.585,3.075 -1.665,3.075 -1.08,0 -1.665,-1.08 -1.665,-3.06 0,-2.04 0.57,-3.09 1.695,-3.09 z" />
        <path
           id="path4563"
           style="font-style:normal;font-variant:normal;font-weight:500;font-stretch:normal;font-size:15px;line-height:125%;font-family:'Century Schoolbook L';-inkscape-font-specification:'Century Schoolbook L, Medium';text-align:start;writing-mode:lr-tb;text-anchor:start;fill:#ececec;fill-opacity:1"
           d="m 89.623703,993.13659 -2.595,0.165 0,0.645 0.54,0 c 0.555,0 0.645,0.105 0.645,0.75 l 0,3.585 0,0.6 c 0,0.6 -0.165,0.705 -1.125,0.705 l -0.06,0 0,0.54001 3.795,0 0,-0.54001 -0.06,0 c -0.975,0 -1.14,-0.105 -1.14,-0.705 l 0,-0.6 0,-1.56 c 0,-0.735 0.105,-1.41 0.27,-1.755 0.315,-0.675 0.99,-1.14 1.635,-1.14 0.39,0 0.84,0.225 1.065,0.525 0.225,0.315 0.33,0.78 0.33,1.5 l 0,2.43 0,0.6 c 0,0.6 -0.165,0.705 -1.14,0.705 l -0.06,0 0,0.54001 3.795,0 0,-0.54001 -0.06,0 c -0.96,0 -1.125,-0.105 -1.125,-0.705 l 0,-0.6 0,-2.355 c 0,-1.08 -0.045,-1.35 -0.315,-1.86 -0.375,-0.72 -1.14,-1.155 -2.025,-1.155 -0.96,0 -1.71,0.45 -2.37,1.44 l 0,-1.215 z" />
        <path
           id="path4565"
           style="font-style:normal;font-variant:normal;font-weight:500;font-stretch:normal;font-size:15px;line-height:125%;font-family:'Century Schoolbook L';-inkscape-font-specification:'Century Schoolbook L, Medium';text-align:start;writing-mode:lr-tb;text-anchor:start;fill:#ececec;fill-opacity:1"
           d="m 97.158625,992.65659 0.33,0 0.465,-2.685 c 0.015,-0.075 0.015,-0.15 0.015,-0.24 0,-0.375 -0.27,-0.645 -0.645,-0.645 -0.36,0 -0.645,0.27 -0.645,0.63 0,0.09 0,0.165 0.015,0.255 l 0.465,2.685 z" />
        <path
           id="path4567"
           style="font-style:normal;font-variant:normal;font-weight:500;font-stretch:normal;font-size:15px;line-height:125%;font-family:'Century Schoolbook L';-inkscape-font-specification:'Century Schoolbook L, Medium';text-align:start;writing-mode:lr-tb;text-anchor:start;fill:#ececec;fill-opacity:1"
           d="m 101.7505,993.13659 0,-2.97 -0.615,0 c -0.15,1.95 -0.81,2.94 -2.025,3.03 l 0,0.585 1.23,0 0,3.825 c 0,1.05 0.03,1.425 0.18,1.77 0.24,0.63001 0.84,0.97501 1.71,0.97501 0.585,0 1.095,-0.18 1.44,-0.51001 0.495,-0.48 0.78,-1.275 0.78,-2.1 0,-0.09 0,-0.195 -0.015,-0.345 l -0.63,0 c -0.045,1.35 -0.435,2.04 -1.17,2.04 -0.345,0 -0.645,-0.18 -0.75,-0.435 -0.09,-0.21 -0.135,-0.585 -0.135,-1.125 l 0,-4.095 2.205,0 0,-0.645 -2.205,0 z" />
        <path
           id="path4569"
           style="font-style:normal;font-variant:normal;font-weight:500;font-stretch:normal;font-size:15px;line-height:125%;font-family:'Century Schoolbook L';-inkscape-font-specification:'Century Schoolbook L, Medium';text-align:start;writing-mode:lr-tb;text-anchor:start;fill:#ececec;fill-opacity:1"
           d="m 71.183547,1014.0616 1.695,0 c 1.35,0 2.055,-0.105 2.655,-0.39 1.065,-0.51 1.665,-1.47 1.665,-2.655 0,-1.14 -0.525,-2.01 -1.515,-2.505 -0.585,-0.3 -1.515,-0.465 -2.55,-0.465 l -5.25,0 0,0.705 0.27,0 c 1.215,0 1.35,0.075 1.35,0.705 l 0,0.435 0,7.14 0,0.435 c 0,0.63 -0.135,0.705 -1.35,0.705 l -0.27,0 0,0.705 5.04,0 0,-0.705 -0.39,0 c -1.215,0 -1.35,-0.075 -1.35,-0.705 l 0,-0.435 0,-2.97 z m 0,-0.705 0,-3.84 c 0,-0.69 0.09,-0.765 0.915,-0.765 l 0.96,0 c 1.56,0 2.295,0.735 2.295,2.325 0,1.545 -0.765,2.28 -2.355,2.28 l -1.815,0 z" />
        <path
           id="path4571"
           style="font-style:normal;font-variant:normal;font-weight:500;font-stretch:normal;font-size:15px;line-height:125%;font-family:'Century Schoolbook L';-inkscape-font-specification:'Century Schoolbook L, Medium';text-align:start;writing-mode:lr-tb;text-anchor:start;fill:#ececec;fill-opacity:1"
           d="m 84.263078,1014.0466 c 0,-0.945 -0.165,-1.425 -0.6,-1.785 -0.495,-0.39 -1.23,-0.6 -2.19,-0.6 -1.68,0 -2.925,0.795 -2.925,1.875 0,0.57 0.345,0.93 0.87,0.93 0.465,0 0.81,-0.315 0.81,-0.765 0,-0.195 -0.075,-0.405 -0.225,-0.615 -0.09,-0.105 -0.105,-0.15 -0.105,-0.195 0,-0.315 0.615,-0.585 1.335,-0.585 0.465,0 0.99,0.15 1.23,0.375 0.285,0.24 0.39,0.6 0.39,1.275 l 0,0.585 c -1.575,0.27 -2.055,0.39 -2.79,0.675 -1.29,0.48 -1.92,1.185 -1.92,2.13 0,1.065 0.855,1.755 2.175,1.755 1.035,0 1.965,-0.42 2.61,-1.185 0.24,0.765 0.615,1.065 1.32,1.065 0.675,0 1.38,-0.435 1.38,-0.87 0,-0.105 -0.075,-0.18 -0.15,-0.18 -0.06,0 -0.12,0.015 -0.225,0.06 -0.24,0.09 -0.3,0.105 -0.42,0.105 -0.42,0 -0.57,-0.285 -0.57,-1.035 l 0,-3.015 z m -1.41,1.83 c 0,0.9 -0.045,1.11 -0.3,1.5 -0.375,0.555 -1.065,0.93 -1.71,0.93 -0.675,0 -1.185,-0.495 -1.185,-1.17 0,-0.63 0.315,-1.08 0.975,-1.395 0.465,-0.21 1.05,-0.36 2.22,-0.555 l 0,0.69 z" />
        <path
           id="path4573"
           style="font-style:normal;font-variant:normal;font-weight:500;font-stretch:normal;font-size:15px;line-height:125%;font-family:'Century Schoolbook L';-inkscape-font-specification:'Century Schoolbook L, Medium';text-align:start;writing-mode:lr-tb;text-anchor:start;fill:#ececec;fill-opacity:1"
           d="m 88.832687,1011.8866 -2.595,0.165 0,0.645 0.54,0 c 0.555,0 0.645,0.105 0.645,0.75 l 0,3.585 0,0.6 c 0,0.6 -0.165,0.705 -1.125,0.705 l -0.06,0 0,0.54 3.795,0 0,-0.54 -0.06,0 c -0.975,0 -1.14,-0.105 -1.14,-0.705 l 0,-0.6 0,-1.56 c 0,-0.735 0.105,-1.41 0.27,-1.755 0.315,-0.675 0.99,-1.14 1.635,-1.14 0.39,0 0.84,0.225 1.065,0.525 0.225,0.315 0.33,0.78 0.33,1.5 l 0,2.43 0,0.6 c 0,0.6 -0.165,0.705 -1.14,0.705 l -0.06,0 0,0.54 3.795,0 0,-0.54 -0.06,0 c -0.96,0 -1.125,-0.105 -1.125,-0.705 l 0,-0.6 0,-2.355 c 0,-1.08 -0.045,-1.35 -0.315,-1.86 -0.375,-0.72 -1.14,-1.155 -2.025,-1.155 -0.96,0 -1.71,0.45 -2.37,1.44 l 0,-1.215 z" />
        <path
           id="path4575"
           style="font-style:normal;font-variant:normal;font-weight:500;font-stretch:normal;font-size:15px;line-height:125%;font-family:'Century Schoolbook L';-inkscape-font-specification:'Century Schoolbook L, Medium';text-align:start;writing-mode:lr-tb;text-anchor:start;fill:#ececec;fill-opacity:1"
           d="m 98.092609,1011.8866 -2.82,0.165 0,0.645 0.765,0 c 0.555,0 0.645,0.105 0.645,0.75 l 0,3.585 0,0.6 c 0,0.6 -0.165,0.705 -1.125,0.705 l -0.105,0 0,0.54 3.885,0 0,-0.54 -0.105,0 c -0.975,0 -1.14,-0.105 -1.14,-0.705 l 0,-0.6 0,-5.145 z m -0.705,-3.735 c -0.48,0 -0.87,0.39 -0.87,0.87 0,0.465 0.39,0.87 0.855,0.87 0.495,0 0.885,-0.39 0.885,-0.87 0,-0.48 -0.39,-0.87 -0.87,-0.87 z" />
        <path
           id="path4577"
           style="font-style:normal;font-variant:normal;font-weight:500;font-stretch:normal;font-size:15px;line-height:125%;font-family:'Century Schoolbook L';-inkscape-font-specification:'Century Schoolbook L, Medium';text-align:start;writing-mode:lr-tb;text-anchor:start;fill:#ececec;fill-opacity:1"
           d="m 105.52441,1016.6716 c -0.48,1.08 -0.99,1.515 -1.77,1.515 -1.2,0 -1.95,-1.095 -1.95,-2.85 0,-1.815 0.735,-3.03 1.845,-3.03 0.45,0 0.84,0.21 0.84,0.45 0,0.045 -0.03,0.09 -0.09,0.18 -0.24,0.285 -0.3,0.435 -0.3,0.69 0,0.495 0.375,0.84 0.9,0.84 0.525,0 0.915,-0.42 0.915,-1.02 0,-1.005 -1.005,-1.785 -2.34,-1.785 -1.95,0 -3.345,1.605 -3.345,3.84 0,2.13 1.275,3.6 3.135,3.6 1.335,0 2.1,-0.615 2.745,-2.205 l -0.585,-0.225 z" />
      </g>
    </g>
  </g>
</svg>
