<?xml version="1.0" encoding="UTF-8" standalone="no"?>
<!-- Created with Inkscape (http://www.inkscape.org/) -->

<svg
   xmlns:dc="http://purl.org/dc/elements/1.1/"
   xmlns:cc="http://creativecommons.org/ns#"
   xmlns:rdf="http://www.w3.org/1999/02/22-rdf-syntax-ns#"
   xmlns:svg="http://www.w3.org/2000/svg"
   xmlns="http://www.w3.org/2000/svg"
   xmlns:sodipodi="http://sodipodi.sourceforge.net/DTD/sodipodi-0.dtd"
   xmlns:inkscape="http://www.inkscape.org/namespaces/inkscape"
   width="160"
   height="80"
   id="svg3484"
   version="1.1"
   inkscape:version="0.48.4 r9939"
   sodipodi:docname="doc.svg">
  <defs
     id="defs3486">
    <clipPath
       clipPathUnits="userSpaceOnUse"
       id="clipPath4084">
      <path
         inkscape:connector-curvature="0"
         d="m 0,841.89 595.28,0 L 595.28,0 0,0 0,841.89 z"
         id="path4086" />
    </clipPath>
  </defs>
  <sodipodi:namedview
     id="base"
     pagecolor="#ffffff"
     bordercolor="#666666"
     borderopacity="1.0"
     inkscape:pageopacity="0.0"
     inkscape:pageshadow="2"
     inkscape:zoom="1.9966906"
     inkscape:cx="82.074087"
     inkscape:cy="27.721129"
     inkscape:document-units="px"
     inkscape:current-layer="layer1"
     showgrid="false"
     inkscape:window-width="956"
     inkscape:window-height="1053"
     inkscape:window-x="960"
     inkscape:window-y="0"
     inkscape:window-maximized="0" />
  <metadata
     id="metadata3489">
    <rdf:RDF>
      <cc:Work
         rdf:about="">
        <dc:format>image/svg+xml</dc:format>
        <dc:type
           rdf:resource="http://purl.org/dc/dcmitype/StillImage" />
        <dc:title />
      </cc:Work>
    </rdf:RDF>
  </metadata>
  <g
     inkscape:label="Layer 1"
     inkscape:groupmode="layer"
     id="layer1"
     transform="translate(0,-972.36218)">
    <g
       id="g3463"
       transform="matrix(0.78418803,0,0,0.78418803,643.7688,971.53936)">
      <rect
         ry="3.6156683"
         rx="2.240212"
         y="1.049263"
         x="-760.20953"
         height="102.01635"
         width="82.578186"
         id="rect5333-5"
         style="fill:#b3b3b3;fill-opacity:1;stroke:none" />
      <rect
         ry="3.6156683"
         rx="0.53157574"
         y="1.049263"
         x="-760.20953"
         height="102.01635"
         width="19.594826"
         id="rect5333-4-7"
         style="fill:#999999;fill-opacity:1;stroke:none" />
      <rect
         transform="matrix(0,-1,1,0,0,0)"
         ry="0.049605679"
         rx="2.7481842"
         y="-754.34967"
         x="-102.70898"
         height="1.3996278"
         width="101.30296"
         id="rect5333-9-4-1"
         style="fill:#b3b3b3;fill-opacity:1;stroke:none" />
      <rect
         ry="0.35398147"
         rx="2.1073179"
         y="89.511047"
         x="-757.41028"
         height="9.9876127"
         width="77.679489"
         id="rect5333-9-6"
         style="fill:#f9f9f9;fill-opacity:1;stroke:none" />
      <g
         style="font-size:93.06532288px;font-style:normal;font-variant:normal;font-weight:normal;font-stretch:normal;line-height:125%;letter-spacing:0px;word-spacing:0px;fill:#ececec;fill-opacity:1;stroke:none;font-family:Droid Serif;-inkscape-font-specification:Droid Serif"
         id="text5481-3">
        <path
           d="m -723.98324,33.88208 0,-0.781603 0.24539,0 c 0.21205,1e-6 0.40896,-0.01515 0.59074,-0.04544 0.18782,-0.03029 0.34838,-0.09088 0.48169,-0.181768 0.13934,-0.09694 0.2484,-0.233268 0.32718,-0.408979 0.0848,-0.175708 0.12723,-0.408977 0.12724,-0.699807 l 0,-4.362437 -6.05288,0 0,4.362437 c -10e-6,0.29083 0.0394,0.524099 0.11815,0.699807 0.0848,0.175711 0.19388,0.312037 0.32718,0.408979 0.13935,0.09089 0.30294,0.151474 0.49077,0.181768 0.18783,0.0303 0.38474,0.04544 0.59075,0.04544 l 0.24539,0 0,0.781603 -5.41669,0 0,-0.781603 0.23629,0 c 0.21207,1e-6 0.40898,-0.01515 0.59075,-0.04544 0.18783,-0.03029 0.35142,-0.09088 0.49077,-0.181768 0.13936,-0.09694 0.24842,-0.233268 0.32719,-0.408979 0.0788,-0.175708 0.11814,-0.408977 0.11815,-0.699807 l 0,-9.124764 c -10e-6,-0.272641 -0.0424,-0.490763 -0.12724,-0.654366 -0.0788,-0.169638 -0.18783,-0.299905 -0.32718,-0.390801 -0.13936,-0.09087 -0.30295,-0.148432 -0.49078,-0.17268 -0.18177,-0.03028 -0.37565,-0.04543 -0.58166,-0.04544 l -0.23629,0 0,-0.781603 5.41669,0 0,0.781603 -0.24539,0 c -0.20601,1.2e-5 -0.40292,0.01516 -0.59075,0.04544 -0.18783,0.03031 -0.35142,0.09393 -0.49077,0.190856 -0.1333,0.0909 -0.24236,0.224193 -0.32718,0.399891 -0.0788,0.17572 -0.11816,0.408989 -0.11815,0.699807 l 0,3.762602 6.05288,0 0,-3.762602 c -10e-6,-0.290818 -0.0424,-0.524087 -0.12724,-0.699807 -0.0788,-0.175698 -0.18784,-0.308994 -0.32718,-0.399891 -0.13331,-0.09693 -0.29387,-0.160549 -0.48169,-0.190856 -0.18178,-0.03028 -0.37869,-0.04543 -0.59074,-0.04544 l -0.24539,0 0,-0.781603 5.41669,0 0,0.781603 -0.2363,0 c -0.21207,1.2e-5 -0.41202,0.01516 -0.59983,0.04544 -0.18178,0.03031 -0.34235,0.09393 -0.48169,0.190856 -0.13937,0.0909 -0.24843,0.224193 -0.32718,0.399891 -0.0788,0.17572 -0.11816,0.408989 -0.11815,0.699807 l 0,9.142941 c -10e-6,0.272654 0.0394,0.493805 0.11815,0.663454 0.0848,0.163592 0.1969,0.2878 0.33627,0.372624 0.13934,0.08483 0.2999,0.142386 0.48169,0.17268 0.18781,0.02424 0.38472,0.03636 0.59074,0.03635 l 0.2363,0 0,0.781603 -5.41669,0"
           style="font-size:18.61306381px;text-align:center;text-anchor:middle;fill:#ececec"
           id="path2994" />
        <path
           d="m -708.14214,28.874366 c -10e-6,1.751037 -0.37264,3.053708 -1.11788,3.908016 -0.7392,0.854311 -1.82374,1.281466 -3.25365,1.281466 -0.67255,0 -1.27541,-0.106031 -1.80859,-0.318094 -0.53319,-0.212063 -0.98761,-0.533186 -1.36326,-0.963372 -0.3696,-0.430183 -0.65437,-0.969428 -0.85431,-1.617737 -0.19389,-0.654362 -0.29083,-1.417787 -0.29083,-2.290279 0,-1.738909 0.36656,-3.032491 1.09969,-3.880751 0.73919,-0.848242 1.8298,-1.272367 3.27183,-1.272377 0.67254,10e-6 1.2754,0.106041 1.8086,0.318094 0.53318,0.206014 0.98457,0.524108 1.35417,0.954283 0.37564,0.424134 0.66041,0.96035 0.85431,1.608649 0.19994,0.642254 0.29991,1.399621 0.29992,2.272102 m -6.88902,0 c 0,0.690724 0.0454,1.299646 0.13633,1.826771 0.0909,0.52713 0.23629,0.969432 0.43624,1.326907 0.206,0.35142 0.46957,0.618014 0.79069,0.799781 0.32718,0.181769 0.72404,0.272653 1.19059,0.272652 0.46653,1e-6 0.86036,-0.09088 1.18149,-0.272652 0.32112,-0.181767 0.58165,-0.448361 0.7816,-0.799781 0.19994,-0.357475 0.34232,-0.799777 0.42716,-1.326907 0.0909,-0.527125 0.13632,-1.136047 0.13632,-1.826771 0,-0.690713 -0.0454,-1.296607 -0.13632,-1.817682 -0.0909,-0.521061 -0.23631,-0.954275 -0.43625,-1.299643 -0.19995,-0.35141 -0.46351,-0.614973 -0.79069,-0.790691 -0.32113,-0.1757 -0.71496,-0.263555 -1.18149,-0.263564 -0.46654,9e-6 -0.86038,0.08786 -1.18149,0.263564 -0.32113,0.175718 -0.58167,0.439281 -0.78161,0.790691 -0.19995,0.345368 -0.34536,0.778582 -0.43624,1.299643 -0.0909,0.521075 -0.13633,1.126969 -0.13633,1.817682"
           style="font-size:18.61306381px;text-align:center;text-anchor:middle;fill:#ececec"
           id="path2996" />
        <path
           d="m -698.23578,23.957536 1.86313,5.516665 c 0.0727,0.224185 0.14843,0.466543 0.22721,0.727073 0.0848,0.254479 0.16358,0.508954 0.2363,0.763426 0.0727,0.24842 0.13934,0.484718 0.19994,0.708896 0.0606,0.224183 0.10602,0.41504 0.13633,0.57257 l 0.0545,0 c 0.0545,-0.309004 0.14237,-0.687687 0.26356,-1.136051 0.12117,-0.454417 0.27567,-0.981545 0.46351,-1.581383 l 0.92702,-2.999176 c 0.0485,-0.157525 0.0878,-0.324145 0.11815,-0.499862 0.0363,-0.18176 0.0545,-0.324145 0.0545,-0.427155 -1e-5,-0.321116 -0.10302,-0.554385 -0.30901,-0.699808 -0.19995,-0.145406 -0.50896,-0.218113 -0.92701,-0.218122 l -0.12724,0 0,-0.781603 3.98072,0 0,0.781603 -0.2363,0 c -0.18178,9e-6 -0.33931,0.01819 -0.47259,0.05453 -0.13332,0.03636 -0.25449,0.10907 -0.36354,0.218121 -0.10302,0.103011 -0.19996,0.248426 -0.29083,0.436244 -0.0909,0.187836 -0.18178,0.436252 -0.27265,0.74525 l -2.39934,7.743325 -1.4905,0 -2.21757,-6.552744 -0.33627,-1.226935 -2.63564,7.779679 -1.47233,0 -2.43569,-8.206834 c -0.0727,-0.193878 -0.14844,-0.35444 -0.22721,-0.481686 -0.0788,-0.127229 -0.16965,-0.227201 -0.27265,-0.299917 -0.10301,-0.07876 -0.22115,-0.133288 -0.35445,-0.163592 -0.1333,-0.03028 -0.29083,-0.04543 -0.4726,-0.04544 l -0.0545,0 0,-0.781603 4.59874,0 0,0.781603 -0.24539,0 c -0.3696,9e-6 -0.64831,0.05454 -0.83613,0.163591 -0.18783,0.10907 -0.28175,0.315074 -0.28174,0.618012 -1e-5,0.103011 0.0151,0.227219 0.0454,0.372625 0.0363,0.145423 0.0727,0.287808 0.10906,0.427155 l 0.87249,3.126414 c 0.0606,0.224185 0.1242,0.469571 0.19085,0.736161 0.0667,0.266597 0.12724,0.53319 0.18177,0.79978 0.0606,0.260537 0.11512,0.505924 0.16359,0.736161 0.0485,0.230242 0.0879,0.424128 0.11815,0.581658 l 0.0545,0 c 0.0303,-0.15753 0.0697,-0.339298 0.11815,-0.545304 0.0545,-0.212061 0.11512,-0.436241 0.18177,-0.672543 0.0727,-0.242354 0.14844,-0.487741 0.22721,-0.736161 0.0788,-0.248413 0.15753,-0.484711 0.2363,-0.708896 l 1.93583,-5.625726 1.1724,0"
           style="font-size:18.61306381px;text-align:center;text-anchor:middle;fill:#ececec"
           id="path2998" />
        <path
           d="m -714.41054,50.867127 c 0.15495,0 0.29735,-0.0084 0.42719,-0.02513 0.12982,-0.01675 0.26175,-0.03769 0.39577,-0.06282 l 0,0.565397 c -0.0544,0.02513 -0.12564,0.05026 -0.21359,0.07539 -0.088,0.02513 -0.18428,0.04607 -0.28898,0.06282 -0.10052,0.02094 -0.20732,0.0356 -0.32039,0.04398 -0.11309,0.01256 -0.21988,0.01885 -0.32039,0.01885 -0.32668,0 -0.60729,-0.0356 -0.84182,-0.106797 -0.23454,-0.06701 -0.42719,-0.177995 -0.57796,-0.332956 -0.15077,-0.15496 -0.26385,-0.360178 -0.33924,-0.615655 -0.0712,-0.255475 -0.1068,-0.56749 -0.1068,-0.936047 l 0,-4.297019 -0.98002,0 0,-0.51514 c 0.15496,6e-6 0.32458,-0.0314 0.50886,-0.09423 0.18847,-0.06282 0.3539,-0.167518 0.49629,-0.31411 0.14659,-0.159141 0.26385,-0.347607 0.35181,-0.565397 0.0921,-0.221963 0.17171,-0.498379 0.23872,-0.829249 l 0.59053,0 0,1.583112 1.68362,0 0,0.735017 -1.68362,0 0,4.334713 c -10e-6,0.439754 0.0879,0.76224 0.26385,0.967457 0.18008,0.205219 0.41881,0.307828 0.71617,0.307828"
           style="font-size:12.86593056px;text-align:center;text-anchor:middle;fill:#ececec"
           id="path3000" />
        <path
           d="m -706.58293,47.958471 c -10e-6,1.210372 -0.25758,2.110819 -0.77271,2.701343 -0.51096,0.590527 -1.26063,0.885789 -2.24903,0.885789 -0.46488,0 -0.8816,-0.07329 -1.25015,-0.219876 -0.36856,-0.146585 -0.68267,-0.368555 -0.94233,-0.665913 -0.25548,-0.297356 -0.45232,-0.670099 -0.59053,-1.11823 -0.13402,-0.452316 -0.20103,-0.980019 -0.20103,-1.583113 0,-1.201988 0.25338,-2.096152 0.76015,-2.682496 0.51095,-0.586331 1.26481,-0.8795 2.26159,-0.879507 0.46488,7e-6 0.88159,0.0733 1.25015,0.219877 0.36855,0.142403 0.68057,0.362279 0.93605,0.65963 0.25966,0.293175 0.4565,0.663824 0.59053,1.111948 0.1382,0.443946 0.2073,0.967462 0.20731,1.570548 m -4.7619,0 c 0,0.47745 0.0314,0.898357 0.0942,1.262721 0.0628,0.364369 0.16334,0.670102 0.30155,0.9172 0.14239,0.242913 0.32457,0.42719 0.54655,0.552833 0.22615,0.125645 0.50047,0.188467 0.82296,0.188466 0.32249,10e-7 0.59471,-0.06282 0.81669,-0.188466 0.22196,-0.125643 0.40205,-0.30992 0.54027,-0.552833 0.1382,-0.247098 0.23662,-0.552831 0.29526,-0.9172 0.0628,-0.364364 0.0942,-0.785271 0.0942,-1.262721 0,-0.477442 -0.0314,-0.896255 -0.0942,-1.256438 -0.0628,-0.360174 -0.16334,-0.659625 -0.30154,-0.898354 -0.13822,-0.242905 -0.3204,-0.425089 -0.54656,-0.54655 -0.22197,-0.12145 -0.4942,-0.182178 -0.81668,-0.182184 -0.32249,6e-6 -0.59472,0.06073 -0.81669,0.182184 -0.22197,0.121461 -0.40206,0.303645 -0.54026,0.54655 -0.13821,0.238729 -0.23873,0.53818 -0.30155,0.898354 -0.0628,0.360183 -0.0942,0.778996 -0.0942,1.256438"
           style="font-size:12.86593056px;text-align:center;text-anchor:middle;fill:#ececec"
           id="path3002" />
        <path
           d="m -723.55609,70.958721 c 0.31506,0.496834 0.62103,0.869459 0.91793,1.117874 0.29688,0.248417 0.64224,0.372626 1.03608,0.372625 l 0.0545,0 0,0.781603 -0.26356,0 c -0.58167,0 -1.06033,-0.02121 -1.43597,-0.06362 -0.36961,-0.04241 -0.68467,-0.124208 -0.94519,-0.245387 -0.26055,-0.121178 -0.48473,-0.290828 -0.67255,-0.508951 -0.18177,-0.218121 -0.37869,-0.502891 -0.59074,-0.85431 l -2.51749,-4.189757 -1.54503,0 0,3.835309 c -10e-6,0.272654 0.0394,0.493805 0.11815,0.663454 0.0848,0.163592 0.19691,0.2878 0.33627,0.372624 0.13935,0.08483 0.29991,0.142386 0.48168,0.17268 0.18782,0.02424 0.38474,0.03636 0.59075,0.03635 l 0.24539,0 0,0.781603 -5.4167,0 0,-0.781603 0.2363,0 c 0.20601,10e-7 0.39989,-0.01212 0.58166,-0.03635 0.18783,-0.03029 0.35142,-0.08785 0.49078,-0.17268 0.13935,-0.08482 0.24841,-0.209032 0.32718,-0.372624 0.0848,-0.169649 0.12723,-0.3908 0.12724,-0.663454 l 0,-9.215648 c -1e-5,-0.272641 -0.0424,-0.490763 -0.12724,-0.654366 -0.0788,-0.169638 -0.18783,-0.299905 -0.32718,-0.390801 -0.13936,-0.09087 -0.30295,-0.148432 -0.49078,-0.17268 -0.18177,-0.03028 -0.37565,-0.04543 -0.58166,-0.04544 l -0.2363,0 0,-0.781603 5.00772,0 c 1.61167,1.3e-5 2.81134,0.29993 3.59901,0.899752 0.78765,0.593788 1.18148,1.49051 1.18149,2.69017 -10e-6,0.496842 -0.0818,0.933085 -0.24538,1.308731 -0.15755,0.369603 -0.36658,0.690726 -0.62711,0.963371 -0.26054,0.272659 -0.5544,0.499869 -0.88157,0.681631 -0.32719,0.181775 -0.65437,0.327189 -0.98155,0.436243 l 2.55384,4.035255 m -5.96199,-4.46241 1.30873,0 c 0.5453,7e-6 0.99972,-0.06058 1.36326,-0.181768 0.36353,-0.121172 0.65436,-0.30294 0.87249,-0.545305 0.21811,-0.24235 0.37261,-0.545296 0.46351,-0.908841 0.0969,-0.363527 0.1454,-0.787653 0.14541,-1.272377 -10e-6,-0.496823 -0.0515,-0.917919 -0.1545,-1.263289 -0.10301,-0.351407 -0.26963,-0.636177 -0.49987,-0.854311 -0.23024,-0.224168 -0.53016,-0.38473 -0.89975,-0.481685 -0.36354,-0.10299 -0.80887,-0.154491 -1.33599,-0.154503 l -1.26329,0 0,5.662079"
           style="font-size:18.61306381px;text-align:center;text-anchor:middle;fill:#ececec"
           id="path3004" />
        <path
           d="m -716.53983,64.069706 c -0.69073,9e-6 -1.22391,0.281749 -1.59956,0.845222 -0.3696,0.55743 -0.58772,1.375386 -0.65437,2.453871 l 4.28064,0 c -1e-5,-0.490768 -0.0364,-0.939129 -0.10906,-1.345085 -0.0727,-0.405942 -0.18783,-0.75433 -0.34536,-1.045167 -0.15754,-0.290821 -0.36657,-0.515001 -0.6271,-0.672543 -0.25448,-0.157523 -0.56955,-0.236289 -0.94519,-0.236298 m 0.22721,9.342885 c -0.67255,0 -1.27844,-0.11209 -1.81769,-0.336271 -0.53319,-0.230239 -0.98458,-0.563481 -1.35417,-0.999725 -0.3696,-0.436242 -0.65437,-0.969428 -0.85431,-1.59956 -0.19389,-0.636186 -0.29083,-1.357199 -0.29083,-2.163042 0,-1.738909 0.35748,-3.047639 1.07243,-3.926193 0.71496,-0.878537 1.73286,-1.317809 3.05371,-1.317819 0.59983,1e-5 1.13907,0.09392 1.61774,0.28174 0.47865,0.187837 0.88459,0.469578 1.21784,0.845222 0.33324,0.369604 0.58771,0.833113 0.76343,1.390527 0.18176,0.551371 0.27264,1.193618 0.27265,1.926743 l 0,0.854311 -6.19829,0 c 0.0121,0.678605 0.0788,1.263292 0.19994,1.754063 0.12724,0.484718 0.30597,0.884607 0.53622,1.19967 0.23629,0.315066 0.52409,0.548335 0.8634,0.699808 0.33929,0.145415 0.73009,0.218122 1.1724,0.218121 0.32112,1e-6 0.61801,-0.03635 0.89067,-0.109061 0.2787,-0.07271 0.53015,-0.169649 0.75433,-0.290829 0.22418,-0.121177 0.42109,-0.257503 0.59075,-0.408978 0.1757,-0.157531 0.31809,-0.321122 0.42716,-0.490774 0.0848,0.03636 0.16358,0.112092 0.23629,0.22721 0.0788,0.115122 0.11815,0.251448 0.11815,0.408978 0,0.187829 -0.0666,0.390803 -0.19994,0.608924 -0.13331,0.212064 -0.33628,0.408979 -0.60892,0.590747 -0.27266,0.181768 -0.61499,0.333241 -1.02699,0.45442 -0.40596,0.121179 -0.88462,0.181768 -1.43597,0.181768"
           style="font-size:18.61306381px;text-align:center;text-anchor:middle;fill:#ececec"
           id="path3006" />
        <path
           d="m -708.9601,70.531565 c 0,0.581661 0.12118,1.017904 0.36354,1.308731 0.24841,0.284772 0.63012,0.427157 1.14514,0.427156 0.37565,10e-7 0.71495,-0.06059 1.0179,-0.181769 0.309,-0.121177 0.56953,-0.293857 0.7816,-0.518039 0.21812,-0.224179 0.38474,-0.496831 0.49986,-0.817957 0.11512,-0.321121 0.17268,-0.678598 0.17268,-1.072432 l 0,-1.508676 -1.19058,0.05453 c -0.52713,0.02424 -0.96943,0.09089 -1.32691,0.199945 -0.35142,0.103007 -0.63619,0.251451 -0.85431,0.445332 -0.21812,0.187832 -0.37565,0.4211 -0.47259,0.699808 -0.0909,0.278714 -0.13633,0.599838 -0.13633,0.963371 m 2.25393,-6.534567 c -0.35749,1e-5 -0.64832,0.05151 -0.87249,0.154503 -0.21813,0.09695 -0.39081,0.236308 -0.51804,0.418067 -0.12118,0.181777 -0.20298,0.396869 -0.24539,0.645277 -0.0424,0.248425 -0.0636,0.518047 -0.0636,0.808869 -0.51501,7e-6 -0.90884,-0.08785 -1.18149,-0.263564 -0.2666,-0.175702 -0.39989,-0.478648 -0.39989,-0.908841 0,-0.321115 0.0879,-0.593767 0.26356,-0.817957 0.17571,-0.224171 0.41504,-0.405939 0.71799,-0.545305 0.309,-0.145404 0.66648,-0.251436 1.07243,-0.318094 0.40595,-0.06664 0.83916,-0.09996 1.29964,-0.09997 0.56954,1e-5 1.06637,0.05757 1.4905,0.172679 0.42412,0.109071 0.77857,0.290839 1.06335,0.545305 0.28476,0.254485 0.49682,0.587726 0.63619,0.999725 0.1454,0.405957 0.21811,0.905819 0.21812,1.499588 l 0,4.825945 c -10e-6,0.260537 0.0212,0.475629 0.0636,0.645278 0.0424,0.169651 0.10905,0.305977 0.19994,0.408978 0.0909,0.103003 0.20903,0.17571 0.35445,0.218122 0.15146,0.04241 0.3302,0.06362 0.53621,0.06362 l 0.0545,0 0,0.781603 -2.51749,0 -0.29083,-1.59956 -0.15451,0 c -0.19389,0.260536 -0.38172,0.499864 -0.56348,0.717984 -0.18177,0.218123 -0.38172,0.40595 -0.59983,0.563482 -0.21813,0.157532 -0.46655,0.278711 -0.74525,0.363536 -0.27266,0.09088 -0.60287,0.136326 -0.99064,0.136326 -0.41201,0 -0.79675,-0.06059 -1.15423,-0.181768 -0.35142,-0.11512 -0.65739,-0.293858 -0.91793,-0.536216 -0.25447,-0.248416 -0.45442,-0.557422 -0.59983,-0.927018 -0.14542,-0.375652 -0.21812,-0.817955 -0.21812,-1.326908 0,-0.987603 0.35141,-1.720734 1.05425,-2.199395 0.70284,-0.478651 1.76618,-0.739185 3.19003,-0.781603 l 1.54503,-0.05453 0,-1.117874 c 0,-0.333235 -0.0182,-0.639211 -0.0545,-0.91793 -0.0364,-0.284762 -0.11512,-0.527119 -0.2363,-0.727072 -0.12118,-0.205996 -0.29689,-0.363528 -0.52712,-0.472598 -0.22419,-0.11511 -0.52714,-0.17267 -0.90884,-0.17268"
           style="font-size:18.61306381px;text-align:center;text-anchor:middle;fill:#ececec"
           id="path3008" />
        <path
           d="m -691.81027,71.185931 c -1e-5,0.272654 0.0394,0.493805 0.11815,0.663454 0.0848,0.163592 0.19691,0.29083 0.33627,0.381713 0.13935,0.09089 0.29991,0.151474 0.48169,0.181768 0.18781,0.02424 0.38473,0.03636 0.59074,0.03635 l 0.15451,0 0,0.781603 -3.15368,0 -0.19995,-1.672267 -0.0727,0 c -0.13937,0.284771 -0.29993,0.542276 -0.48169,0.772514 -0.17572,0.224182 -0.37869,0.418068 -0.60892,0.581659 -0.23025,0.157532 -0.49078,0.278711 -0.78161,0.363536 -0.29083,0.09088 -0.61801,0.136326 -0.98155,0.136326 -0.61195,0 -1.15423,-0.09997 -1.62682,-0.299917 -0.4726,-0.206004 -0.86946,-0.518039 -1.19058,-0.936107 -0.32113,-0.424124 -0.56349,-0.96034 -0.72708,-1.608648 -0.16359,-0.648303 -0.24538,-1.417788 -0.24538,-2.308456 0,-0.896718 0.0818,-1.672261 0.24538,-2.326633 0.16359,-0.654358 0.40595,-1.193603 0.72708,-1.617737 0.32112,-0.424117 0.71798,-0.736152 1.19058,-0.936106 0.47259,-0.205994 1.01487,-0.308996 1.62682,-0.309006 0.35748,1e-5 0.68163,0.03939 0.97246,0.118149 0.29083,0.07878 0.55136,0.190866 0.78161,0.336271 0.23629,0.145424 0.44532,0.318104 0.6271,0.518039 0.18176,0.199954 0.33929,0.421106 0.4726,0.663454 l 0.10906,0 c -0.0182,-0.302938 -0.0364,-0.587708 -0.0545,-0.85431 -0.0121,-0.23023 -0.0242,-0.45744 -0.0364,-0.681631 -0.0121,-0.230229 -0.0182,-0.399879 -0.0182,-0.508951 l 0,-1.526853 c -10e-6,-0.27264 -0.0424,-0.490761 -0.12724,-0.654365 -0.0788,-0.169638 -0.18784,-0.299905 -0.32719,-0.390802 -0.13936,-0.09087 -0.30295,-0.148431 -0.49077,-0.17268 -0.18177,-0.03028 -0.37566,-0.04543 -0.58166,-0.04544 l -0.1545,0 0,-0.781603 3.42633,0 0,12.096674 m -4.28064,1.036079 c 0.48471,10e-7 0.88763,-0.07877 1.20876,-0.236299 0.32717,-0.16359 0.58771,-0.408977 0.7816,-0.736161 0.19994,-0.327181 0.33929,-0.739188 0.41807,-1.236024 0.0848,-0.496829 0.12723,-1.081517 0.12724,-1.754063 -10e-6,-0.648301 -0.0424,-1.22087 -0.12724,-1.71771 -0.0788,-0.496826 -0.21813,-0.911863 -0.41807,-1.245112 -0.19389,-0.339292 -0.45443,-0.596797 -0.7816,-0.772515 -0.32719,-0.1757 -0.73617,-0.263555 -1.22694,-0.263564 -0.40595,9e-6 -0.75434,0.08786 -1.04516,0.263564 -0.29084,0.175718 -0.53017,0.433223 -0.71799,0.772515 -0.18177,0.339308 -0.31507,0.760404 -0.39989,1.263289 -0.0848,0.496839 -0.12724,1.069409 -0.12724,1.71771 0,1.320852 0.17874,2.308458 0.53622,2.962821 0.35747,0.654367 0.94822,0.98155 1.77224,0.981549"
           style="font-size:18.61306381px;text-align:center;text-anchor:middle;fill:#ececec"
           id="path3010" />
      </g>
    </g>
  </g>
</svg>
