<?xml version="1.0" encoding="UTF-8" standalone="no"?>
<!-- Created with Inkscape (http://www.inkscape.org/) -->

<svg
   xmlns:dc="http://purl.org/dc/elements/1.1/"
   xmlns:cc="http://creativecommons.org/ns#"
   xmlns:rdf="http://www.w3.org/1999/02/22-rdf-syntax-ns#"
   xmlns:svg="http://www.w3.org/2000/svg"
   xmlns="http://www.w3.org/2000/svg"
   xmlns:sodipodi="http://sodipodi.sourceforge.net/DTD/sodipodi-0.dtd"
   xmlns:inkscape="http://www.inkscape.org/namespaces/inkscape"
   width="160"
   height="80"
   id="svg3484"
   version="1.1"
   inkscape:version="0.48.4 r9939"
   sodipodi:docname="gears.svg">
  <defs
     id="defs3486">
    <clipPath
       clipPathUnits="userSpaceOnUse"
       id="clipPath4084">
      <path
         inkscape:connector-curvature="0"
         d="m 0,841.89 595.28,0 L 595.28,0 0,0 0,841.89 z"
         id="path4086" />
    </clipPath>
  </defs>
  <sodipodi:namedview
     id="base"
     pagecolor="#ffffff"
     bordercolor="#666666"
     borderopacity="1.0"
     inkscape:pageopacity="0.0"
     inkscape:pageshadow="2"
     inkscape:zoom="1"
     inkscape:cx="79.02211"
     inkscape:cy="51.918947"
     inkscape:document-units="px"
     inkscape:current-layer="layer1"
     showgrid="false"
     inkscape:window-width="956"
     inkscape:window-height="1053"
     inkscape:window-x="960"
     inkscape:window-y="0"
     inkscape:window-maximized="0" />
  <metadata
     id="metadata3489">
    <rdf:RDF>
      <cc:Work
         rdf:about="">
        <dc:format>image/svg+xml</dc:format>
        <dc:type
           rdf:resource="http://purl.org/dc/dcmitype/StillImage" />
        <dc:title></dc:title>
      </cc:Work>
    </rdf:RDF>
  </metadata>
  <g
     inkscape:label="Layer 1"
     inkscape:groupmode="layer"
     id="layer1"
     transform="translate(0,-972.36218)">
    <g
       id="g4078"
       inkscape:label="opensource_logo"
       transform="matrix(0.54484693,0,0,-0.54484693,-95.44686,1211.83)"
       inkscape:export-filename="/home/siavash/Documents/Development/GLFW/website/img/osi.png"
       inkscape:export-xdpi="90"
       inkscape:export-ydpi="90">
      <g
         id="g4080">
        <g
           transform="translate(15.841584,-14.257426)"
           id="g4082"
           clip-path="url(#clipPath4084)">
          <g
             style="fill:#b3b3b3"
             id="g4088"
             transform="translate(232.6997,330.2671)">
            <path
               inkscape:connector-curvature="0"
               d="m 0,0 c 0,1.116 -0.381,2.075 -1.143,2.876 -0.761,0.8 -1.699,1.2 -2.812,1.2 -1.113,0 -2.05,-0.4 -2.811,-1.2 C -7.528,2.075 -7.909,1.116 -7.909,0 l 0,-5.889 c 0,-0.543 0.103,-1.064 0.308,-1.562 0.205,-0.498 0.483,-0.937 0.835,-1.314 0.351,-0.378 0.769,-0.672 1.252,-0.882 0.483,-0.212 1.003,-0.318 1.559,-0.318 1.113,0 2.051,0.4 2.812,1.2 C -0.381,-7.965 0,-7.006 0,-5.889 L 0,0 z m 1.779,-11.482 c -0.688,-0.68 -1.516,-1.201 -2.482,-1.563 -0.967,-0.362 -2.051,-0.543 -3.252,-0.543 -1.201,0 -2.284,0.181 -3.251,0.543 -0.966,0.362 -1.794,0.883 -2.482,1.563 -0.688,0.679 -1.223,1.495 -1.604,2.446 -0.38,0.951 -0.571,2 -0.571,3.147 l 0,5.889 c 0,1.146 0.191,2.196 0.571,3.147 0.381,0.952 0.916,1.767 1.604,2.447 0.688,0.678 1.516,1.2 2.482,1.562 0.967,0.363 2.05,0.544 3.251,0.544 1.201,0 2.285,-0.189 3.252,-0.566 C 0.263,6.756 1.091,6.228 1.779,5.548 2.467,4.869 3.002,4.061 3.383,3.125 3.763,2.188 3.954,1.146 3.954,0 l 0,-5.889 c 0,-1.147 -0.191,-2.196 -0.571,-3.147 -0.381,-0.951 -0.916,-1.767 -1.604,-2.446 m 16.014,11.029 c 0,0.544 -0.103,1.064 -0.308,1.562 -0.205,0.498 -0.483,0.936 -0.834,1.314 -0.352,0.377 -0.769,0.672 -1.253,0.884 -0.482,0.211 -1.003,0.316 -1.559,0.316 -1.113,0 -2.05,-0.4 -2.812,-1.2 C 10.265,1.622 9.885,0.663 9.885,-0.453 l 0,-4.983 c 0,-1.117 0.38,-2.076 1.142,-2.876 0.762,-0.8 1.699,-1.2 2.812,-1.2 0.556,0 1.077,0.106 1.559,0.317 0.484,0.211 0.901,0.506 1.253,0.883 0.351,0.377 0.629,0.816 0.834,1.314 0.205,0.498 0.308,1.019 0.308,1.562 l 0,4.983 z m 1.867,-10.485 c -0.659,-0.68 -1.428,-1.216 -2.306,-1.609 -0.879,-0.392 -1.831,-0.589 -2.856,-0.589 -0.644,0 -1.208,0.075 -1.692,0.227 -0.483,0.151 -0.9,0.324 -1.252,0.521 -0.351,0.196 -0.637,0.369 -0.857,0.521 -0.219,0.15 -0.373,0.226 -0.461,0.226 -0.235,0 -0.351,-0.166 -0.351,-0.498 l 0,-10.735 c 0,-0.301 -0.147,-0.452 -0.44,-0.452 l -3.075,0 c -0.293,0 -0.439,0.151 -0.439,0.452 l 0,29.668 c 0,0.302 0.146,0.453 0.439,0.453 l 2.636,0 c 0.292,0 0.439,-0.151 0.439,-0.453 l 0,-0.544 c 0,-0.332 0.103,-0.498 0.308,-0.498 0.146,0 0.336,0.075 0.571,0.227 0.234,0.15 0.527,0.324 0.879,0.52 0.351,0.196 0.769,0.37 1.252,0.522 0.483,0.15 1.047,0.226 1.691,0.226 1.113,0 2.131,-0.189 3.054,-0.566 0.923,-0.378 1.72,-0.907 2.394,-1.585 0.674,-0.68 1.201,-1.489 1.582,-2.424 0.38,-0.937 0.571,-1.978 0.571,-3.125 l 0,-4.983 c 0,-1.117 -0.183,-2.144 -0.549,-3.08 -0.366,-0.936 -0.879,-1.743 -1.538,-2.422 M 34.598,1.721 c -0.22,0.453 -0.513,0.853 -0.879,1.2 C 33.353,3.268 32.935,3.548 32.467,3.759 31.998,3.97 31.5,4.076 30.973,4.076 30.446,4.076 29.941,3.97 29.458,3.759 28.974,3.548 28.557,3.261 28.205,2.898 27.854,2.536 27.568,2.121 27.349,1.653 c -0.22,-0.468 -0.33,-0.944 -0.33,-1.426 0,-0.243 0.022,-0.416 0.066,-0.522 0.044,-0.105 0.168,-0.158 0.373,-0.158 l 7.03,0 c 0.204,0 0.329,0.06 0.373,0.181 0.044,0.121 0.066,0.317 0.066,0.588 0,0.484 -0.11,0.952 -0.329,1.405 m 3.844,-5.345 -10.984,0 c -0.293,0 -0.439,-0.151 -0.439,-0.452 l 0,-1.813 c 0,-0.543 0.102,-1.064 0.308,-1.562 0.204,-0.498 0.483,-0.937 0.834,-1.314 0.352,-0.378 0.769,-0.672 1.253,-0.882 0.482,-0.212 1.003,-0.318 1.559,-0.318 0.527,0 1.003,0.091 1.428,0.272 0.424,0.181 0.754,0.422 0.989,0.724 0.497,0.604 0.856,1.073 1.076,1.405 0.22,0.332 0.402,0.498 0.549,0.498 0.059,0 0.147,-0.031 0.264,-0.09 l 2.768,-1.45 c 0.175,-0.09 0.263,-0.197 0.263,-0.317 0,-0.151 -0.139,-0.491 -0.417,-1.019 -0.279,-0.529 -0.754,-1.11 -1.428,-1.745 -1.318,-1.267 -3.149,-1.901 -5.492,-1.901 -1.201,0 -2.285,0.181 -3.251,0.543 -0.967,0.362 -1.795,0.883 -2.482,1.563 -0.689,0.679 -1.224,1.495 -1.604,2.446 -0.381,0.951 -0.571,2 -0.571,3.147 l 0,5.889 c 0,1.026 0.205,2.008 0.615,2.943 0.41,0.937 0.973,1.751 1.692,2.447 0.717,0.694 1.552,1.253 2.503,1.675 0.952,0.423 1.985,0.635 3.098,0.635 1.083,0 2.109,-0.212 3.076,-0.635 C 35.015,6.643 35.857,6.084 36.575,5.39 37.292,4.694 37.856,3.88 38.266,2.943 38.676,2.008 38.881,1.026 38.881,0 l 0,-3.171 c 0,-0.302 -0.147,-0.453 -0.439,-0.453 m 17.793,-9.512 -3.075,0 c -0.293,0 -0.439,0.152 -0.439,0.453 l 0,12.23 c 0,0.544 -0.103,1.064 -0.308,1.562 -0.205,0.498 -0.483,0.936 -0.835,1.314 -0.351,0.377 -0.768,0.672 -1.252,0.884 -0.483,0.211 -1.004,0.316 -1.559,0.316 -1.114,0 -2.051,-0.4 -2.812,-1.2 -0.763,-0.801 -1.143,-1.76 -1.143,-2.876 l 0,-12.23 c 0,-0.301 -0.146,-0.453 -0.439,-0.453 l -3.076,0 c -0.293,0 -0.439,0.152 -0.439,0.453 l 0,19.477 c 0,0.302 0.146,0.453 0.439,0.453 l 2.637,0 c 0.292,0 0.439,-0.151 0.439,-0.453 l 0,-0.544 c 0,-0.332 0.102,-0.498 0.307,-0.498 0.147,0 0.337,0.075 0.571,0.227 0.235,0.15 0.528,0.324 0.879,0.52 0.352,0.196 0.769,0.37 1.252,0.522 0.484,0.15 1.047,0.226 1.692,0.226 1.113,0 2.131,-0.189 3.053,-0.566 0.923,-0.378 1.721,-0.907 2.395,-1.585 0.673,-0.68 1.201,-1.489 1.582,-2.424 0.38,-0.937 0.571,-1.978 0.571,-3.125 l 0,-12.23 c 0,-0.301 -0.147,-0.453 -0.44,-0.453 m 15.536,12.407 c 1.259,-0.272 2.379,-0.544 3.361,-0.816 0.981,-0.271 1.801,-0.604 2.46,-0.996 0.659,-0.394 1.164,-0.892 1.516,-1.495 0.351,-0.605 0.527,-1.374 0.527,-2.31 0,-1.933 -0.63,-3.504 -1.889,-4.711 -1.26,-1.208 -2.958,-1.811 -5.096,-1.811 l -1.362,0 c -1.026,0 -1.955,0.136 -2.79,0.407 -0.834,0.273 -1.545,0.611 -2.131,1.02 -0.586,0.407 -1.04,0.837 -1.362,1.291 -0.323,0.452 -0.484,0.86 -0.484,1.222 0,0.12 0.104,0.227 0.309,0.318 l 1.712,0.86 c 0.059,0.029 0.132,0.045 0.22,0.045 0.088,0 0.204,-0.075 0.352,-0.227 0.292,-0.332 0.571,-0.649 0.835,-0.951 0.263,-0.302 0.555,-0.573 0.879,-0.815 0.322,-0.241 0.68,-0.43 1.076,-0.566 0.395,-0.135 0.856,-0.204 1.384,-0.204 l 1.362,0 c 1.23,0 2.211,0.318 2.943,0.951 0.732,0.634 1.099,1.419 1.099,2.356 0,1.599 -1.436,2.702 -4.306,3.307 -1.289,0.271 -2.416,0.527 -3.383,0.769 -0.966,0.241 -1.787,0.559 -2.461,0.951 -0.673,0.393 -1.179,0.891 -1.515,1.495 -0.337,0.604 -0.506,1.404 -0.506,2.401 0,1.872 0.615,3.388 1.846,4.551 1.23,1.163 2.871,1.745 4.921,1.745 l 1.362,0 c 0.995,0 1.903,-0.136 2.724,-0.409 0.819,-0.271 1.53,-0.604 2.13,-0.996 0.6,-0.392 1.062,-0.815 1.384,-1.268 0.322,-0.453 0.484,-0.846 0.484,-1.178 0,-0.121 -0.103,-0.227 -0.308,-0.316 L 77.395,3.029 c -0.06,-0.03 -0.118,-0.045 -0.176,-0.045 -0.088,0 -0.206,0.076 -0.351,0.227 -0.616,0.694 -1.224,1.275 -1.824,1.744 -0.6,0.468 -1.399,0.702 -2.394,0.702 l -1.362,0 c -1.289,0 -2.263,-0.265 -2.922,-0.793 -0.659,-0.529 -0.989,-1.261 -0.989,-2.197 0,-0.936 0.352,-1.653 1.054,-2.151 0.703,-0.498 1.817,-0.913 3.34,-1.245 m 22.055,1.404 c 0,0.634 -0.126,1.245 -0.375,1.834 -0.25,0.589 -0.582,1.101 -0.994,1.54 -0.413,0.437 -0.913,0.785 -1.5,1.042 C 90.367,5.347 89.75,5.476 89.103,5.476 88.426,5.476 87.8,5.347 87.226,5.091 86.653,4.834 86.16,4.494 85.748,4.071 85.335,3.648 85.012,3.143 84.777,2.554 84.541,1.966 84.423,1.338 84.423,0.675 l 0,-6.115 c 0,-0.664 0.118,-1.291 0.354,-1.88 0.235,-0.589 0.566,-1.103 0.993,-1.539 0.427,-0.439 0.92,-0.787 1.479,-1.042 0.558,-0.257 1.177,-0.386 1.854,-0.386 0.647,0 1.264,0.129 1.854,0.386 0.587,0.255 1.087,0.603 1.5,1.042 0.412,0.436 0.744,0.95 0.994,1.539 0.249,0.589 0.375,1.216 0.375,1.88 l 0,6.115 z m -4.745,-13.543 c -2.344,0 -4.196,0.672 -5.558,2.015 -1.362,1.343 -2.043,3.148 -2.043,5.413 l 0,6.115 c 0,2.264 0.681,4.06 2.043,5.389 1.362,1.329 3.214,1.994 5.558,1.994 1.17,0 2.225,-0.182 3.163,-0.544 0.937,-0.363 1.742,-0.868 2.417,-1.518 0.672,-0.649 1.193,-1.427 1.559,-2.332 0.366,-0.906 0.549,-1.902 0.549,-2.989 l 0,-6.115 c 0,-2.235 -0.696,-4.032 -2.087,-5.39 -1.391,-1.358 -3.259,-2.038 -5.601,-2.038 m 24.867,0.453 -1.626,0 c -0.293,0 -0.44,0.15 -0.44,0.452 l 0,1.948 c 0,0.332 -0.117,0.498 -0.351,0.498 -0.205,0 -0.425,-0.151 -0.658,-0.453 -0.236,-0.301 -0.558,-0.664 -0.967,-1.087 -0.938,-0.906 -2.154,-1.358 -3.647,-1.358 -0.996,0 -1.933,0.181 -2.812,0.543 -0.878,0.362 -1.641,0.868 -2.284,1.518 -0.645,0.648 -1.151,1.433 -1.516,2.355 -0.367,0.921 -0.55,1.925 -0.55,3.012 l 0,12.138 c 0,0.302 0.147,0.453 0.44,0.453 l 2.065,0 c 0.292,0 0.44,-0.151 0.44,-0.453 l 0,-12.138 c 0,-0.664 0.124,-1.291 0.373,-1.88 0.249,-0.589 0.578,-1.103 0.988,-1.54 0.41,-0.438 0.901,-0.785 1.472,-1.042 0.571,-0.257 1.178,-0.385 1.824,-0.385 0.673,0 1.302,0.128 1.888,0.385 0.586,0.257 1.091,0.604 1.516,1.042 0.425,0.437 0.754,0.951 0.988,1.54 0.235,0.589 0.352,1.216 0.352,1.88 l 0,12.138 c 0,0.302 0.146,0.453 0.439,0.453 l 2.066,0 c 0.292,0 0.439,-0.151 0.439,-0.453 l 0,-19.114 c 0,-0.302 -0.147,-0.452 -0.439,-0.452 m 13.179,16.804 c -0.175,0 -0.403,0.022 -0.68,0.067 -0.28,0.046 -0.609,0.068 -0.989,0.068 -0.674,0 -1.296,-0.121 -1.868,-0.362 -0.57,-0.242 -1.061,-0.582 -1.471,-1.019 -0.411,-0.438 -0.733,-0.944 -0.966,-1.517 -0.236,-0.574 -0.352,-1.193 -0.352,-1.857 l 0,-11.732 c 0,-0.302 -0.145,-0.452 -0.433,-0.452 l -2.077,0 c -0.29,0 -0.434,0.15 -0.434,0.452 l 0,19.114 c 0,0.302 0.144,0.453 0.434,0.453 l 1.601,0 c 0.288,0 0.433,-0.151 0.433,-0.453 l 0,-2.264 c 0,-0.333 0.115,-0.498 0.346,-0.498 0.233,0 0.554,0.241 0.964,0.724 0.41,0.483 1.011,1.057 1.802,1.721 0.234,0.211 0.549,0.393 0.944,0.544 0.396,0.15 0.754,0.226 1.077,0.226 l 1.625,0 c 0.293,0 0.44,-0.151 0.44,-0.453 l 0,-2.309 c 0,-0.303 -0.132,-0.453 -0.396,-0.453 m 12.742,-1.54 c -0.06,-0.031 -0.119,-0.045 -0.176,-0.045 -0.118,0 -0.235,0.059 -0.352,0.18 -0.323,0.302 -0.631,0.604 -0.923,0.907 -0.293,0.3 -0.6,0.573 -0.922,0.815 -0.323,0.241 -0.667,0.43 -1.033,0.565 -0.367,0.136 -0.798,0.205 -1.296,0.205 -0.674,0 -1.296,-0.129 -1.867,-0.385 -0.571,-0.257 -1.062,-0.597 -1.472,-1.02 -0.411,-0.423 -0.733,-0.928 -0.966,-1.517 -0.236,-0.588 -0.352,-1.216 -0.352,-1.879 l 0,-6.115 c 0,-0.664 0.116,-1.291 0.352,-1.88 0.233,-0.589 0.563,-1.103 0.988,-1.539 0.424,-0.439 0.915,-0.787 1.472,-1.042 0.555,-0.257 1.171,-0.386 1.845,-0.386 1.083,0 2.05,0.408 2.9,1.224 0.468,0.453 0.812,0.822 1.032,1.109 0.22,0.287 0.402,0.431 0.55,0.431 0.088,0 0.16,-0.016 0.22,-0.046 l 1.844,-0.952 c 0.176,-0.06 0.264,-0.18 0.264,-0.362 0,-0.362 -0.161,-0.777 -0.483,-1.245 -0.323,-0.469 -0.785,-0.906 -1.384,-1.313 -0.601,-0.409 -1.318,-0.747 -2.153,-1.02 -0.834,-0.271 -1.765,-0.407 -2.79,-0.407 -2.343,0 -4.196,0.672 -5.558,2.015 -1.361,1.343 -2.043,3.148 -2.043,5.413 l 0,6.115 c 0,2.264 0.682,4.06 2.043,5.389 1.362,1.329 3.215,1.994 5.558,1.994 1.025,0 1.956,-0.136 2.79,-0.409 0.835,-0.271 1.552,-0.604 2.153,-0.996 0.599,-0.392 1.068,-0.815 1.406,-1.268 0.336,-0.453 0.505,-0.861 0.505,-1.223 0,-0.151 -0.103,-0.271 -0.308,-0.362 L 139.869,2.849 z M 155.86,0.675 c 0,0.634 -0.126,1.245 -0.375,1.834 -0.25,0.589 -0.582,1.101 -0.994,1.54 -0.411,0.437 -0.912,0.785 -1.5,1.042 -0.589,0.256 -1.207,0.385 -1.854,0.385 -0.677,0 -1.303,-0.129 -1.876,-0.385 -0.574,-0.257 -1.067,-0.597 -1.479,-1.02 -0.411,-0.423 -0.736,-0.928 -0.971,-1.517 -0.235,-0.588 -0.353,-1.216 -0.353,-1.879 l 0,-0.635 c 0,-0.302 0.147,-0.452 0.441,-0.452 l 8.519,0 c 0.294,0 0.442,0.15 0.442,0.452 l 0,0.635 z m 2.504,-3.216 -11.467,0 c -0.293,0 -0.439,-0.151 -0.439,-0.453 l 0,-2.446 c 0,-0.664 0.118,-1.291 0.353,-1.88 0.235,-0.589 0.566,-1.103 0.993,-1.539 0.427,-0.439 0.92,-0.787 1.48,-1.042 0.558,-0.257 1.176,-0.386 1.853,-0.386 1.089,0 2.06,0.408 2.914,1.224 0.471,0.453 0.817,0.822 1.037,1.109 0.221,0.287 0.405,0.431 0.552,0.431 0.088,0 0.161,-0.016 0.22,-0.046 l 1.846,-0.952 c 0.175,-0.06 0.263,-0.18 0.263,-0.362 0,-0.362 -0.162,-0.777 -0.483,-1.245 -0.323,-0.469 -0.784,-0.906 -1.386,-1.313 -0.601,-0.409 -1.32,-0.747 -2.158,-1.02 -0.838,-0.271 -1.772,-0.407 -2.8,-0.407 -2.351,0 -4.211,0.672 -5.578,2.015 -1.366,1.343 -2.05,3.148 -2.05,5.413 l 0,6.115 c 0,0.845 0.176,1.705 0.528,2.581 0.351,0.876 0.863,1.676 1.538,2.401 1.463,1.6 3.309,2.401 5.535,2.401 1.054,0 2.05,-0.204 2.987,-0.612 0.938,-0.408 1.758,-0.951 2.461,-1.631 0.703,-0.679 1.252,-1.464 1.647,-2.355 0.396,-0.891 0.593,-1.819 0.593,-2.785 l 0,-2.764 c 0,-0.302 -0.146,-0.452 -0.439,-0.452"
               style="fill:#b3b3b3;fill-opacity:1;fill-rule:nonzero;stroke:none"
               id="path4090" />
          </g>
          <g
             style="fill:#b3b3b3"
             id="g4092"
             transform="translate(296.1372,453.0347)">
            <path
               inkscape:connector-curvature="0"
               d="m 0,0 c 11.988,2.01 24.635,-0.121 35.256,-6.055 10.631,-5.874 19.182,-15.437 23.795,-26.675 4.687,-11.25 5.354,-24.102 1.939,-35.797 -4.62,-16.163 -17.256,-29.808 -33.072,-35.532 -1.296,-0.612 -2.293,0.703 -2.581,1.806 -3.88,10.446 -7.877,20.856 -11.717,31.315 -0.894,1.883 1.427,2.555 2.675,3.198 6.852,3.275 10.513,11.819 8.143,19.049 -1.746,5.898 -7.116,10.494 -13.212,11.304 -6.96,1.128 -14.286,-2.994 -17.064,-9.443 -2.664,-5.797 -1.41,-13.111 3.066,-17.664 1.758,-1.998 4.188,-3.145 6.51,-4.338 1.038,-0.564 0.678,-1.914 0.324,-2.797 -3.906,-10.32 -7.746,-20.657 -11.652,-30.977 -0.276,-0.888 -1.188,-1.938 -2.208,-1.506 -19.056,6.672 -33.3,25.031 -35.142,45.132 -1.428,13.206 2.256,26.873 10.152,37.553 C -26.562,-10.117 -13.806,-2.232 0,0"
               style="fill:#b3b3b3;fill-opacity:1;fill-rule:nonzero;stroke:none"
               id="path4094" />
          </g>
          <g
             style="fill:#e6e6e6"
             id="g4096"
             transform="translate(293.5513,448.6597)">
            <path
               inkscape:connector-curvature="0"
               d="m 0,0 c 9.991,2.364 20.694,1.578 30.234,-2.232 10.896,-4.302 20.172,-12.552 25.758,-22.854 5.009,-9.156 7.039,-19.902 5.73,-30.264 -1.272,-10.615 -6.09,-20.749 -13.463,-28.489 -4.825,-5.136 -10.777,-9.138 -17.22,-11.946 -3.589,9.595 -7.315,19.14 -10.741,28.795 5.802,2.952 10.134,8.718 10.908,15.234 1.357,8.844 -4.181,18.054 -12.564,21.102 -7.722,3.072 -17.189,0.593 -22.386,-5.893 -5.015,-5.933 -5.952,-14.897 -2.292,-21.744 1.914,-3.815 5.215,-6.737 8.922,-8.76 -3.594,-9.569 -7.181,-19.139 -10.782,-28.703 -9.888,4.14 -18.401,11.478 -23.91,20.676 -4.656,7.74 -7.212,16.752 -7.152,25.794 -0.138,11.202 3.738,22.368 10.656,31.163 C -21.288,-9.102 -11.136,-2.574 0,0"
               style="fill:#e6e6e6;fill-opacity:1;fill-rule:nonzero;stroke:none"
               id="path4098" />
          </g>
          <g
             style="fill:#b3b3b3"
             id="g4100"
             transform="translate(373.6719,353.9175)">
            <path
               inkscape:connector-curvature="0"
               d="M 0,0 C -0.84,2.154 -1.254,4.452 -1.596,6.727 -2.784,4.242 -4.2,1.872 -5.508,-0.552 c -1.314,2.424 -2.665,4.83 -3.893,7.296 -0.361,-2.315 -0.966,-4.584 -1.543,-6.851 -0.642,0 -1.285,-0.007 -1.919,-0.007 0.94,3.961 2.051,7.878 2.915,11.856 1.511,-2.784 3.006,-5.586 4.386,-8.442 1.566,2.749 2.862,5.64 4.44,8.383 C -0.234,7.692 0.931,3.769 1.866,-0.216 1.398,-0.162 0.462,-0.054 0,0"
               style="fill:#b3b3b3;fill-opacity:1;fill-rule:nonzero;stroke:none"
               id="path4102" />
          </g>
          <g
             style="fill:#b3b3b3"
             id="g4104"
             transform="translate(356.3496,363.5776)">
            <path
               inkscape:connector-curvature="0"
               d="m 0,0 c -0.018,-3.258 0.007,-6.516 -0.018,-9.774 -0.677,0 -1.356,0.006 -2.027,0 -0.024,3.258 -0.007,6.51 -0.018,9.762 l -3.355,0 c 0,0.504 0.006,1.008 0.006,1.512 2.923,0 5.845,-0.006 8.766,0.007 C 3.336,0.99 3.324,0.474 3.313,-0.048 2.209,-0.024 1.098,-0.012 0,0"
               style="fill:#b3b3b3;fill-opacity:1;fill-rule:nonzero;stroke:none"
               id="path4106" />
          </g>
        </g>
      </g>
    </g>
  </g>
</svg>
