<svg height="60" viewBox="0 0 60.000003 59.999999" width="60" xmlns="http://www.w3.org/2000/svg" xmlns:xlink="http://www.w3.org/1999/xlink"><radialGradient id="a" cx="528.34998" cy="345.95999" gradientTransform="matrix(1 0 0 .76976 0 92.602)" gradientUnits="userSpaceOnUse" r="293.95001" xlink:href="#b"/><linearGradient id="b"><stop offset="0" stop-color="#f2f2f2"/><stop offset="1" stop-color="#e5e5e5"/></linearGradient><linearGradient id="c" gradientTransform="matrix(1 0 0 .90119 -6.0609 57.753)" gradientUnits="userSpaceOnUse" x1="371.44" x2="643" y1="456.04001" y2="344.82999"><stop offset="0" stop-color="#d9d9d9"/><stop offset="1" stop-color="#e6e6e6" stop-opacity="0"/></linearGradient><linearGradient id="d" gradientUnits="userSpaceOnUse" x1="739.60999" x2="252.83" xlink:href="#e" y1="-3.3526" y2="102.34"/><linearGradient id="e"><stop offset="0" stop-color="#dadada"/><stop offset="1" stop-color="#dadada" stop-opacity="0"/></linearGradient><linearGradient id="f" gradientUnits="userSpaceOnUse" x1="178.64911" x2="278.2791" xlink:href="#b" y1="323.192" y2="321.17201"/><linearGradient id="g" gradientUnits="userSpaceOnUse" x1="303.29909" x2="222.5691" y1="540.21199" y2="275.55201"><stop offset="0" stop-color="#737373"/><stop offset="1" stop-color="#737373" stop-opacity="0"/></linearGradient><radialGradient id="h" cx="927.84003" cy="462.48001" gradientTransform="matrix(-.41163 -.053069 .028464 -.22078 736.01 668.92)" gradientUnits="userSpaceOnUse" r="269.19" xlink:href="#e"/><linearGradient id="i" gradientUnits="userSpaceOnUse" x1="229.49001" x2="145.59" xlink:href="#j" y1="252.3" y2="117.79"/><linearGradient id="j"><stop offset="0" stop-color="#cdcdcd"/><stop offset="1" stop-color="#fdfdfd"/></linearGradient><pattern id="k" height="10" patternTransform="matrix(2.2985 0 0 2.6968 235.98 206.72)" patternUnits="userSpaceOnUse" width="10"><circle cx="2.567" cy=".81" fill="#fff" r=".15"/><circle cx="3.048" cy="2.33" fill="#fff" r=".15"/><circle cx="4.418" cy="2.415" fill="#fff" r=".15"/><circle cx="1.844" cy="3.029" fill="#fff" r=".15"/><circle cx="6.08" cy="1.363" fill="#fff" r=".15"/><circle cx="5.819" cy="4.413" fill="#fff" r=".15"/><circle cx="4.305" cy="4.048" fill="#fff" r=".15"/><circle cx="5.541" cy="3.045" fill="#fff" r=".15"/><circle cx="4.785" cy="5.527" fill="#fff" r=".15"/><circle cx="2.667" cy="5.184" fill="#fff" r=".15"/><circle cx="7.965" cy="1.448" fill="#fff" r=".15"/><circle cx="7.047" cy="5.049" fill="#fff" r=".15"/><circle cx="4.34" cy=".895" fill="#fff" r=".15"/><circle cx="7.125" cy=".34" fill="#fff" r=".15"/><circle cx="9.553" cy="1.049" fill="#fff" r=".15"/><circle cx="7.006" cy="2.689" fill="#fff" r=".15"/><circle cx="8.909" cy="2.689" fill="#fff" r=".15"/><circle cx="9.315" cy="4.407" fill="#fff" r=".15"/><circle cx="7.82" cy="3.87" fill="#fff" r=".15"/><circle cx="8.27" cy="5.948" fill="#fff" r=".15"/><circle cx="7.973" cy="7.428" fill="#fff" r=".15"/><circle cx="9.342" cy="8.072" fill="#fff" r=".15"/><circle cx="8.206" cy="9.315" fill="#fff" r=".15"/><circle cx="9.682" cy="9.475" fill="#fff" r=".15"/><circle cx="9.688" cy="6.186" fill="#fff" r=".15"/><circle cx="3.379" cy="6.296" fill="#fff" r=".15"/><circle cx="2.871" cy="8.204" fill="#fff" r=".15"/><circle cx="4.59" cy="8.719" fill="#fff" r=".15"/><circle cx="3.181" cy="9.671" fill="#fff" r=".15"/><circle cx="5.734" cy="7.315" fill="#fff" r=".15"/><circle cx="6.707" cy="6.513" fill="#fff" r=".15"/><circle cx="5.73" cy="9.67" fill="#fff" r=".15"/><circle cx="6.535" cy="8.373" fill="#fff" r=".15"/><circle cx="4.37" cy="7.154" fill="#fff" r=".15"/><circle cx=".622" cy="7.25" fill="#fff" r=".15"/><circle cx=".831" cy="5.679" fill="#fff" r=".15"/><circle cx="1.257" cy="8.519" fill="#fff" r=".15"/><circle cx="1.989" cy="6.877" fill="#fff" r=".15"/><circle cx=".374" cy="3.181" fill="#fff" r=".15"/><circle cx="1.166" cy="1.664" fill="#fff" r=".15"/><circle cx="1.151" cy=".093" fill="#fff" r=".15"/><circle cx="1.151" cy="10.093" fill="#fff" r=".15"/><circle cx="1.302" cy="4.451" fill="#fff" r=".15"/><circle cx="3.047" cy="3.763" fill="#fff" r=".15"/></pattern><linearGradient id="l" gradientUnits="userSpaceOnUse" x1="356.07999" x2="344.76999" xlink:href="#j" y1="536.95001" y2="468.76999"/><linearGradient id="m" gradientUnits="userSpaceOnUse" x1="434.29999" x2="400.60001" xlink:href="#j" y1="538.28003" y2="496.35001"/><g transform="matrix(.08788345 0 0 .08768089 -12.880096 -1.09361)"><g fill-rule="evenodd"><ellipse cx="526.28949" cy="402.19791" fill="#666" opacity=".3" rx="298.04086" ry="226.27417" transform="matrix(1.0412 0 0 .84593 -89.696 113.14)"/><ellipse cx="526.28949" cy="402.19791" fill="#cdcdcd" rx="293.95438" ry="226.27417" transform="matrix(1.081 0 0 .90091 -56.566 48.557)"/><ellipse cx="526.28949" cy="402.19791" fill="#fff" rx="293.95438" ry="226.27417" transform="matrix(1.0738 0 0 .89698 -50.673 43.97)"/><ellipse cx="526.28949" cy="402.19791" fill="url(#a)" rx="293.95438" ry="226.27417" transform="matrix(1.032 0 0 .86206 -28.672 58.016)"/><path d="m194.87 429.84c-4.7408 32.968 100.65 10.463 99.379 39.675-3.3144 76.334 151.95 140.53 288.51 101.34 37.647-10.803 92.778-30.303 122.53-65.87 24.664-29.483 49.341-73.638 35.809-109.62-21.865-58.133-88.846-88.372-160.24-95.084-72.567-6.823-166.94 29.148-246.06 58.199-49.149 18.047-134.89 36.326-139.93 71.353z" fill="#737373" opacity=".2"/><path d="m779.8 197.54c0 78.62-519.19 78.62-519.19 0 0 393.1 519.19 393.1 519.19 0z" fill="#f5f5f5"/><path d="m779.8 197.54c0 78.62-519.19 78.62-519.19 0 0 393.1 519.19 393.1 519.19 0z" fill="url(#c)"/><ellipse cx="520.22858" cy="75.918625" fill="#e6e6e6" rx="271.73105" ry="174.75639" transform="matrix(.95533 0 0 .74777 23.211 145.82)"/><ellipse cx="520.22858" cy="75.918625" fill="#fff" rx="271.73105" ry="174.75639" transform="matrix(.95533 0 0 .74198 23.211 145.25)"/><ellipse cx="520.22858" cy="75.918625" fill="url(#d)" rx="271.73105" ry="174.75639" transform="matrix(.92559 0 0 .69574 38.683 146.74)"/><path d="m525.28 143.6c-115.41 0-211.81 45.096-235.06 105.25 39.116 42.594 127.35 72.281 229.97 72.281 108.89 0 201.6-33.449 236.59-80.25-28.361-56.121-121.25-97.281-231.5-97.281z" fill="#f68e56"/><path d="m527.1 190.07c-98.749 0-181.66 35.954-204.81 84.531 46.04 28.34 117.57 46.531 197.91 46.531 86.513 0 162.81-21.13 208.06-53.281-27.325-45.116-107.05-77.781-201.16-77.781z" fill="#fbaf5d"/><path d="m230.81 228.35c-15.275.065-31.46 5.3397-41.312 16.75-38.551 44.647 6.6006 99.822 35.719 127.28 23.476 22.139 75.081 59.054 103.56 32.188-8.799-10.355-16.919-21.625-24.281-33.812-12.872-1.6947-25.863-3.7484-32.281-9.9688-21.93-21.254-65.944-43.068-46.969-82.312 6.3994-13.235 31.239-7.1137 40.75-14.406-1.4219-8.3936-2.5372-17.018-3.4062-25.875-7.3326-6.4503-19.248-9.897-31.781-9.8438z" fill="url(#f)"/><path d="m249.5 242.95c-13.703.046-29.559 6.7823-28.281 17.375 1.7945 14.871 34.502 14.645 44.781 3.75-.99407-5.8682-1.8365-11.843-2.5625-17.938-3.5539-2.191-8.5753-3.2055-13.938-3.1875zm-52.594 28.656c-.58715.0437-1.2192.16135-1.9062.375-33.373 10.378 5.9958 75.213 30.219 100.41 22.837 23.752 88.601 61.54 103.57 32.188 7.1099-13.941-31.221-4.9521-44.498-12.827-30.643-18.174-57.927-49.7-75.228-75.923-8.0567-12.211-.21761-45.107-12.156-44.219z" fill="url(#g)" opacity=".2"/><path d="m832.21 527.18c-35.326 27.075-205.25 9.3589-281.01 18.342-47.086 5.5831-54.233 27.723-55.465 29.276-16.3 20.551-57.534 35.496-98.749 35.496-53 0-95.964-23.97-95.964-53.538s42.965-53.538 95.964-53.538c39.836 0 79.691 13.121 97.031 32.195 4.5055 4.9558 20.593-18.467 333.53-26.281 18.699-.46693 4.6608 18.049 4.6608 18.049z" fill="#a7a7a7" transform="matrix(.99663 .081982 -.091263 1.1095 21.843 -125.81)"/><path d="m803.14 523.29c-37.678 27.142-205.41-6.4436-281.74-2.6885-47.437 2.334-56.581 26.312-57.95 27.934-18.121 21.464-60.58 34.665-101.66 31.286-52.821-4.345-93.454-34.461-90.755-67.266 2.6985-32.805 47.706-55.876 100.53-51.531 39.702 3.2658 78.225 21.091 93.766 43.674 4.038 5.8677 22.209-18.8 334.81-1.8141 18.679 1.015 2.998 20.406 2.998 20.406z" fill="url(#h)"/><path d="m356.94 462.5c-44.671.56009-80.886 20.843-85.531 49 9.2384-28.038 50.775-46.696 98.75-42.75 39.702 3.2658 78.209 21.073 93.75 43.656 4.038 5.8677 22.214-18.798 334.81-1.8125 7.0046.38061 9.1765 3.349 9.1562 6.9062 2.4035-5.5199 2.9123-12.047-7.7188-12.625-312.6-16.986-330.77 7.6802-334.81 1.8125-15.541-22.583-54.079-40.39-93.781-43.656-4.952-.40735-9.8388-.59126-14.625-.53125z" fill="#e6e6e6"/><path d="m805.07 508.06c.4853 5.8985-3.0958 10.383-3.0958 10.383-37.88 26.627-206.52-6.3203-283.26-2.6365-47.691 2.2896-56.87 25.816-58.247 27.407-18.217 21.057-60.904 34.002-102.2 30.687-39.991-3.21-73.048-20.735-85.768-42.95 10.911 24.047 45.462 43.477 87.779 46.874 41.295 3.3147 83.982-9.6306 102.2-30.687 1.3768-1.5914 10.556-25.117 58.247-27.407 76.73-3.6838 245.38 29.263 283.26 2.6365 0 0 7.4294-9.1053 1.0852-14.307z" fill="#9a9a9a"/><path d="m356.94 462.5c-44.671.56009-92.623 31.834-73.929 56.612 6.3889 8.4684 4.5021-8.9985 25.542-18.984 28.466-13.51 68.799-9.8495 75.892.0507 55.335 77.238 10.818-19.824 311.14 10.993 12.35 1.2673-54.544 17.52 83.434 17.099 21.026-.0641 28.874-14.329 28.854-10.771 2.4035-5.5199 2.9123-12.047-7.7188-12.625-312.58-16.99-328.44 9.29-333.79 4.58-57.34-56.29-67.53-44.59-109.41-46.96z" fill="#fff" opacity=".3"/><path d="m793.35 540.63c-13.464-.92473-27.239 4.5679-44.836 5.4162 0 0 7.4372-11.452 6.0739-11.386-67.537 3.276-185.38-19.816-245.03-16.649-47.781 2.5365-59.503 25.063-60.882 26.826-18.252 23.327-47.887 36.152-89.26 32.48-40.066-3.556-89.348-76.004-85.93-37.478 10.932 26.639 45.548 48.164 87.945 51.927 41.373 3.672 87.676-6.1231 105.93-29.45 1.3794-1.7629 23.708-34.391 63.913-29.856 54.506 6.1476 147.17 21.274 209.67 18.794 1.187-.0471-13.294 10.001-12.129 9.941 23.582-1.2145 48.069-5.6117 66.547-10.157 2.3894-1.4865 9.7387-8.9674-2.0145-10.408z" fill="#9a9a9a" opacity=".3"/></g><g fill="#fff"><path d="m661.41 336.91c9.6259-15.894 28.791-35.33 34.64-9.9662-30.507 133.48-108.06 128.41-131.29 150.87 19.823-25.037 87.704-51.115 96.647-140.91z" opacity=".7"/><path d="m217.37 241.01c-5.695-.0396-9.7869-9.9221 5.4486-10.019 51.552-.32773 33.407 26.376 37.925 32.303-6.8952-4.7642.42571-21.979-43.373-22.284z" opacity=".7"/><path d="m362.31 230.36c0 33.138-30.95 15.976-30.95 5.498 0-33.067 136.91-64.483 136.91-69.814 0 15.807-105.96 31.178-105.96 64.316z" opacity=".7"/><path d="m626.03 213.61c0-11.766 90.405 1.3683 90.405 13.298 0 31.749-165.03 69.686-165.03 81.828 0-14.215 169.81-95.126 74.62-95.126z" opacity=".7"/></g><g fill-rule="evenodd"><path d="m317.1879 287.04052c-8.88934 8.28325-106.78204 30.84512-118.40022 27.28835-11.61817-3.55678-80.10367-77.05341-82.83251-88.89343-2.72883-11.84002 26.67837-107.89852 35.56771-116.18177s106.78205-30.845118 118.40022-27.288347c11.61818 3.556771 80.10368 77.053407 82.83251 88.893427 2.72884 11.84002-26.67836 107.89852-35.56771 116.18177z" fill="url(#i)" transform="matrix(.43912 .017392 -.017392 .43912 244.01 401.98)"/><path d="m317.1879 287.04052c-8.88934 8.28325-106.78204 30.84512-118.40022 27.28835-11.61817-3.55678-80.10367-77.05341-82.83251-88.89343-2.72883-11.84002 26.67837-107.89852 35.56771-116.18177s106.78205-30.845118 118.40022-27.288347c11.61818 3.556771 80.10368 77.053407 82.83251 88.893427 2.72884 11.84002-26.67836 107.89852-35.56771 116.18177z" fill="url(#k)" transform="matrix(.43912 .017392 -.017392 .43912 244.01 401.98)"/><path d="m387.61 460.33c-.23235.0149-.40063.0532-.5625.0937-5.18 1.2964-36.939 31.991-38.406 37.125-1.4673 5.1342 9.2561 47.975 12.969 51.812 3.419 3.5342 41.57 14.46 51.332 15.098l-9.0874-48.499 35.365-38.891-1.1976-3.6242c-6.7905-4.2373-43.58-13.554-50.411-13.115z" fill="url(#l)"/><path d="m438.16 474.76.1875.59375-36.375 40.406 9.7188 48.625c.83846.0547 1.4965.04 1.9062-.0625 5.18-1.2964 36.908-31.991 38.375-37.125 1.4673-5.1342-9.2561-47.943-12.969-51.781-.18531-.19156-.47487-.42607-.84375-.65625z" fill="url(#m)"/><path d="m317.1879 287.04052c-8.88934 8.28325-106.78204 30.84512-118.40022 27.28835-11.61817-3.55678-80.10367-77.05341-82.83251-88.89343-2.72883-11.84002 26.67837-107.89852 35.56771-116.18177s106.78205-30.845118 118.40022-27.288347c11.61818 3.556771 80.10368 77.053407 82.83251 88.893427 2.72884 11.84002-26.67836 107.89852-35.56771 116.18177z" fill="url(#k)" transform="matrix(.37641 -.22682 .22682 .37641 266.83 490.31)"/></g></g></svg>